<?xml version="1.0" encoding="UTF-8"?>
<svg version="1.1" xmlns="http://www.w3.org/2000/svg" width="406" height="132">
<path d="M0 0 C5.68515526 3.59152024 11.98945317 7.95781269 13.6875 14.75 C12.63732393 19.71446868 9.73066479 23.5878066 6 27 C4.68 27 3.36 27 2 27 C-2 22.77777778 -2 22.77777778 -2 20 C-2.66 20 -3.32 20 -4 20 C-4.598125 19.38125 -5.19625 18.7625 -5.8125 18.125 C-9.71394895 14.33502102 -13.61476128 13.70805111 -18.9375 13.6875 C-24.62401817 13.78530252 -28.55524492 14.6425576 -32.75 18.6875 C-33.1625 19.120625 -33.575 19.55375 -34 20 C-34.66 20 -35.32 20 -36 20 C-39.45597181 30.03877527 -39.89459279 36.98533281 -36 47 C-35.34 47 -34.68 47 -34 47 C-34 47.66 -34 48.32 -34 49 C-33.4225 49.28875 -32.845 49.5775 -32.25 49.875 C-30 51 -30 51 -28.25 52.0625 C-22.80222875 54.33240469 -16.62619528 54.57928289 -11 53 C-2.32812312 48.27431428 2.66185949 39.97369954 8 32 C29.90499943 -0.29365396 29.90499943 -0.29365396 47 -4 C57.20753882 -5.20668131 66.9635443 -3.34852978 75.75 2.125 C76.4925 2.74375 77.235 3.3625 78 4 C78 4.66 78 5.32 78 6 C78.556875 6.185625 79.11375 6.37125 79.6875 6.5625 C85.93240699 10.44446921 88.15489191 17.25538193 90 24 C90.185625 24.64453125 90.37125 25.2890625 90.5625 25.953125 C92.67584458 35.84055858 90.57217067 46.31694949 85.25 54.8125 C79.44872345 62.83401819 71.56401452 68.35150367 62 71 C48.34114939 72.16073236 38.77405221 70.39389816 27.8125 61.78125 C25.95771009 59.95843923 25.00287465 58.3818273 24 56 C23.34 56 22.68 56 22 56 C20.9425975 52.20909955 20.70727101 50.56623839 22.546875 47.0078125 C23.27390625 46.05648437 24.0009375 45.10515625 24.75 44.125 C25.46671875 43.15820312 26.1834375 42.19140625 26.921875 41.1953125 C27.60765625 40.47085938 28.2934375 39.74640625 29 39 C29.99 39 30.98 39 32 39 C33.32421875 40.5390625 33.32421875 40.5390625 34.6875 42.625 C38.27385463 47.5981962 42.21844618 51.89813346 48.265625 53.66015625 C54.61237021 54.59921549 59.5974619 53.36614912 65.1875 50.1875 C71.05722503 45.62215831 73.4511952 41.07683569 74.4375 33.75 C73.69581499 27.39269988 71.02202302 21.97270539 66.4375 17.5 C59.95932128 13.51342848 54.59964469 13.15154027 47 14 C39.63537822 16.41402744 35.43907047 23.03150189 31 29 C30.28328125 29.86625 29.5665625 30.7325 28.828125 31.625 C26.83648299 33.94376272 26.83648299 33.94376272 26 37 C25.34 37 24.68 37 24 37 C23.01 39.97 23.01 39.97 22 43 C21.34 43 20.68 43 20 43 C19.690625 43.78375 19.38125 44.5675 19.0625 45.375 C18 48 18 48 17 50 C16.34 50 15.68 50 15 50 C14.773125 50.515625 14.54625 51.03125 14.3125 51.5625 C9.47948885 60.53809213 2.75944283 66.79562451 -6.9140625 70.29296875 C-18.40102587 72.924792 -28.79944856 71.93751464 -39.00390625 66.05078125 C-47.73819132 60.07229407 -52.65815187 53.02554439 -56 43 C-56.80935861 29.82470336 -56.2472929 19.41349894 -47.60546875 8.80859375 C-46.81076172 7.91333984 -46.81076172 7.91333984 -46 7 C-45.52175781 6.45472656 -45.04351562 5.90945312 -44.55078125 5.34765625 C-32.86610522 -6.21929004 -14.14763316 -6.75766836 0 0 Z " fill="#513394" transform="translate(248,23)"/>
<path d="M0 0 C4.80139866 -0.07484195 9.60244862 -0.12892454 14.40429688 -0.16479492 C16.03358891 -0.17976766 17.66284145 -0.20015321 19.29199219 -0.22631836 C40.54488631 -0.55880229 40.54488631 -0.55880229 48.4375 5.25 C54.15872623 11.38985254 54.48968239 16.80045029 54.29296875 24.96875 C53.77286843 30.35005466 51.31724716 33.89293209 48 38 C48.66 38.45375 49.32 38.9075 50 39.375 C50.66 39.91125 51.32 40.4475 52 41 C52 41.66 52 42.32 52 43 C52.66 43 53.32 43 54 43 C57.79773412 49.62840597 57.76822876 55.52257339 57 63 C55.46525165 68.37987055 52.80043654 72.02830119 48 75 C42.63293457 77.30223476 37.73829921 77.26034443 32.0078125 77.1953125 C30.58890213 77.19106766 30.58890213 77.19106766 29.1413269 77.18673706 C26.13575306 77.17558932 23.13048298 77.15049465 20.125 77.125 C18.08073349 77.11496321 16.03646228 77.10583859 13.9921875 77.09765625 C8.99467556 77.07566767 3.9973892 77.04117509 -1 77 C-1.02313836 67.25576086 -1.04092273 57.51152822 -1.05181217 47.76726723 C-1.05703772 43.24294695 -1.06412944 38.71864542 -1.07543945 34.19433594 C-1.08627995 29.83069041 -1.09227932 25.46706295 -1.09487724 21.103405 C-1.09672939 19.43598521 -1.10034599 17.76856645 -1.10573006 16.10115433 C-1.11295589 13.77135303 -1.11399029 11.44162705 -1.11352539 9.11181641 C-1.11712067 8.41770157 -1.12071594 7.72358673 -1.12442017 7.00843811 C-1.11405216 2.22810432 -1.11405216 2.22810432 0 0 Z M11 11 C11 18.59 11 26.18 11 34 C13.97 34.061875 16.94 34.12375 20 34.1875 C20.91910156 34.21481201 21.83820313 34.24212402 22.78515625 34.27026367 C28.95581291 34.33178501 34.70144539 33.70228485 39.66796875 29.63354492 C41.95942921 26.82339794 42.10601508 23.49849757 42 20 C40.35770547 15.16435501 38.5188271 13.23696704 34 11 C31.30135263 10.59216653 31.30135263 10.59216653 28.48046875 10.70703125 C27.09831177 10.71827026 27.09831177 10.71827026 25.68823242 10.72973633 C24.53299072 10.75704834 23.37774902 10.78436035 22.1875 10.8125 C18.495625 10.874375 14.80375 10.93625 11 11 Z M11 44 C11 51.59 11 59.18 11 67 C14.85459456 67.08124438 18.70746115 67.14062344 22.5625 67.1875 C24.19155273 67.22520508 24.19155273 67.22520508 25.85351562 67.26367188 C32.90519975 67.32797295 38.33892267 67.07058098 43.9375 62.375 C45.63140611 58.58862163 45.75931329 55.06373222 45 51 C43.42609279 47.98959019 41.49712417 45.53905377 38.19433594 44.34985352 C35.48056941 43.91718469 32.88924055 43.8883202 30.140625 43.90234375 C29.02558594 43.90556641 27.91054687 43.90878906 26.76171875 43.91210938 C25.02341797 43.92467773 25.02341797 43.92467773 23.25 43.9375 C22.07566406 43.94201172 20.90132812 43.94652344 19.69140625 43.95117188 C16.79424905 43.96294894 13.89711807 43.98088412 11 44 Z " fill="#E3E3E3" transform="translate(134,19)"/>
<path d="M0 0 C0.74935822 -0.00807175 1.49871643 -0.01614349 2.27078247 -0.02445984 C3.86637038 -0.03832813 5.4619883 -0.04903794 7.05761719 -0.05688477 C9.46349653 -0.07390524 11.8679308 -0.11773739 14.2734375 -0.16210938 C24.30758833 -0.26370368 33.49213082 0.06147738 41.6328125 6.67578125 C47.47097248 14.15592372 48.35345369 20.89615089 47.6328125 30.23828125 C46.42747457 35.86635522 44.149333 39.56204363 39.6328125 43.23828125 C37.64621513 44.26464906 35.64759394 45.26840715 33.6328125 46.23828125 C37.65269256 54.3911005 41.76138536 62.47239253 46.14257812 70.43774414 C48.6328125 75.02310392 48.6328125 75.02310392 48.6328125 77.23828125 C44.0128125 77.23828125 39.3928125 77.23828125 34.6328125 77.23828125 C33.29210932 74.63767621 31.96007896 72.03323209 30.6328125 69.42578125 C30.25125 68.68779297 29.8696875 67.94980469 29.4765625 67.18945312 C28.93515625 66.12114258 28.93515625 66.12114258 28.3828125 65.03125 C28.04765625 64.37664795 27.7125 63.7220459 27.3671875 63.04760742 C26.6328125 61.23828125 26.6328125 61.23828125 26.6328125 58.23828125 C25.9728125 58.23828125 25.3128125 58.23828125 24.6328125 58.23828125 C24.4575 57.52800781 24.2821875 56.81773438 24.1015625 56.0859375 C22.96327254 52.81335386 22.03331393 50.7680736 19.6328125 48.23828125 C13.99700548 46.95510352 9.56629694 47.14180183 3.6328125 47.23828125 C3.6328125 57.13828125 3.6328125 67.03828125 3.6328125 77.23828125 C-0.3271875 77.23828125 -4.2871875 77.23828125 -8.3671875 77.23828125 C-8.39031178 67.34638749 -8.40810302 57.45450011 -8.41899967 47.56258488 C-8.42422832 42.96985485 -8.43132562 38.37714325 -8.44262695 33.78442383 C-8.4534565 29.35594437 -8.45946448 24.92748269 -8.46206474 20.49899101 C-8.46391887 18.80562497 -8.46753925 17.11225996 -8.47291756 15.41890144 C-8.4801289 13.05536893 -8.4811784 10.6919108 -8.48071289 8.32836914 C-8.48430817 7.62130829 -8.48790344 6.91424744 -8.49160767 6.1857605 C-8.47661259 -0.80474469 -6.28467549 0.06395318 0 0 Z M3.6328125 11.23828125 C3.6328125 19.81828125 3.6328125 28.39828125 3.6328125 37.23828125 C7.3040625 37.30015625 10.9753125 37.36203125 14.7578125 37.42578125 C15.9039502 37.45309326 17.05008789 37.48040527 18.23095703 37.50854492 C23.74631975 37.553515 27.94511607 37.51504274 32.6328125 34.23828125 C35.59417713 29.89494646 36.18971688 26.4360555 35.6328125 21.23828125 C34.25067128 17.88666879 34.25067128 17.88666879 32.6328125 15.23828125 C31.9728125 15.23828125 31.3128125 15.23828125 30.6328125 15.23828125 C30.6328125 14.57828125 30.6328125 13.91828125 30.6328125 13.23828125 C24.99892558 10.82917809 19.75999737 11.00837067 13.7578125 11.11328125 C10.4165625 11.15453125 7.0753125 11.19578125 3.6328125 11.23828125 Z " fill="#D4D4D4" transform="translate(16.3671875,18.76171875)"/>
<path d="M0 0 C1.01690918 0.00499512 2.03381836 0.00999023 3.08154297 0.01513672 C11.65315947 0.21403004 18.65188255 1.35777957 25.5 6.921875 C29.41529151 11.05962626 30.54933694 16.04187746 31 21.5625 C30.72476461 24.79651588 29.90236422 27.47504391 28.75 30.5 C28.09 30.5 27.43 30.5 26.75 30.5 C26.09 31.82 25.43 33.14 24.75 34.5 C24.09 34.5 23.43 34.5 22.75 34.5 C22.75 35.16 22.75 35.82 22.75 36.5 C21.76 36.5 20.77 36.5 19.75 36.5 C19.75 37.16 19.75 37.82 19.75 38.5 C20.801875 38.5309375 20.801875 38.5309375 21.875 38.5625 C26.11757751 39.94594919 28.17179573 42.96720744 30.75 46.5 C33.2622226 51.5244452 32.61258681 60.50805603 31.06640625 65.87109375 C28.16802239 71.27098733 23.66657654 74.79367982 18.05078125 76.86328125 C16.72661016 77.20100925 15.39670781 77.51690092 14.0625 77.8125 C13.35915527 77.97637207 12.65581055 78.14024414 11.93115234 78.30908203 C-0.07555761 80.93854877 -13.59513204 80.20862056 -24.25 73.5 C-28.66039158 69.56094798 -32.16082902 65.42993091 -33.25 59.5 C-33.38441695 56.47810784 -33.34177864 53.52869527 -33.25 50.5 C-29.62 50.5 -25.99 50.5 -22.25 50.5 C-22.0025 52.046875 -21.755 53.59375 -21.5 55.1875 C-20.5627105 59.64119776 -19.91603359 62.54929004 -16.25 65.5 C-6.28566946 69.62664194 4.18224214 69.66946455 14.421875 66.5390625 C18.02215377 64.93222667 19.29118855 63.11229501 20.75 59.5 C21.39556191 54.33550471 20.76244492 50.77572827 17.75 46.5 C11.17879396 42.60768052 4.28387628 42.94962542 -3.1875 42.8125 C-4.44369141 42.77833984 -5.69988281 42.74417969 -6.99414062 42.70898438 C-10.07933786 42.62686886 -13.16426384 42.55759701 -16.25 42.5 C-16.25 39.53 -16.25 36.56 -16.25 33.5 C-15.59515625 33.48018066 -14.9403125 33.46036133 -14.265625 33.43994141 C-11.26005552 33.34389478 -8.25510669 33.23454216 -5.25 33.125 C-4.22003906 33.0940625 -3.19007812 33.063125 -2.12890625 33.03125 C8.28274624 32.86692755 8.28274624 32.86692755 17.25 28.3125 C19.46592054 24.15764898 19.31464213 20.75856853 18.1875 16.25 C15.42815269 12.89079457 11.47172353 11.68977491 7.27368164 11.22705078 C4.53055347 11.13390979 1.80669534 11.13969172 -0.9375 11.1875 C-1.87400391 11.18427734 -2.81050781 11.18105469 -3.77539062 11.17773438 C-8.29756165 11.21324036 -11.21388844 11.40614014 -15.25 13.5 C-16.24 13.5 -17.23 13.5 -18.25 13.5 C-20.50085565 18.32326211 -21.27918957 23.29922985 -22.25 28.5 C-25.88 28.5 -29.51 28.5 -33.25 28.5 C-33.82709544 20.56493765 -31.99788344 14.74109328 -26.8125 8.625 C-18.57637013 1.79503864 -10.4585737 -0.06692114 0 0 Z " fill="#C4C4C4" transform="translate(98.25,18.5)"/>
<path d="M0 0 C20.13 0 40.26 0 61 0 C61 3.63 61 7.26 61 11 C53.08 11 45.16 11 37 11 C37 32.78 37 54.56 37 77 C32.71 77 28.42 77 24 77 C24 55.22 24 33.44 24 11 C16.08 11 8.16 11 0 11 C0 7.37 0 3.74 0 0 Z " fill="#C6C6C6" transform="translate(336,19)"/>
<path d="M0 0 C8.66666667 0 17.33333333 0 26 0 C28.00912519 -0.03189088 30.01824974 -0.06385841 32.02734375 -0.09765625 C34 0 34 0 37 1 C37.66 0.67 38.32 0.34 39 0 C41.2072923 -0.07092842 43.41667452 -0.08415025 45.625 -0.0625 C46.81351562 -0.05347656 48.00203125 -0.04445313 49.2265625 -0.03515625 C50.14179688 -0.02355469 51.05703125 -0.01195313 52 0 C52.66 1.32 53.32 2.64 54 4 C54.66 2.68 55.32 1.36 56 0 C60.31248609 -0.02886537 64.62494762 -0.04675255 68.9375 -0.0625 C70.16919922 -0.07087891 71.40089844 -0.07925781 72.66992188 -0.08789062 C73.83974609 -0.09111328 75.00957031 -0.09433594 76.21484375 -0.09765625 C77.84087524 -0.10551147 77.84087524 -0.10551147 79.49975586 -0.11352539 C82 0 82 0 83 1 C83.07179964 2.51928038 83.08392007 4.04167482 83.0625 5.5625 C83.05347656 6.38878906 83.04445313 7.21507813 83.03515625 8.06640625 C83.02355469 8.70449219 83.01195312 9.34257813 83 10 C84.32 9.67 85.64 9.34 87 9 C87.495 11.475 87.495 11.475 88 14 C84.64961743 14.83759564 82.2704774 15.24052591 79 14 C78.01 13.01 78.01 13.01 77 12 C76.34 12.99 75.68 13.98 75 15 C71.84765625 15.3984375 71.84765625 15.3984375 68.0625 15.375 C66.81597656 15.38273437 65.56945312 15.39046875 64.28515625 15.3984375 C61 15 61 15 59.05859375 13.4765625 C58.70925781 12.98929688 58.35992187 12.50203125 58 12 C57.34 12.99 56.68 13.98 56 15 C51.25 14.25 51.25 14.25 49 12 C48.45730469 12.50273438 47.91460937 13.00546875 47.35546875 13.5234375 C44.33088736 15.41944374 42.80137541 15.11875273 39.3125 14.625 C37.5455064 14.38628033 35.77490851 14.17015652 34 14 C33.67 14.33 33.34 14.66 33 15 C31.00047242 15.04346799 28.99960012 15.039992 27 15 C24.84324055 15 22.68623928 15.05326057 20.53125 15.140625 C19.1875177 15.17773003 17.8437668 15.21416622 16.5 15.25 C15.48486328 15.30027344 15.48486328 15.30027344 14.44921875 15.3515625 C12.46875 15.390625 12.46875 15.390625 9 15 C7.03125 12.984375 7.03125 12.984375 6 11 C5.34 12.32 4.68 13.64 4 15 C2.68 14.67 1.36 14.34 0 14 C0 9.38 0 4.76 0 0 Z M29 5 C28.67 6.32 28.34 7.64 28 9 C28.99 9.33 29.98 9.66 31 10 C31.33 9.01 31.66 8.02 32 7 C31.67 6.34 31.34 5.68 31 5 C30.34 5 29.68 5 29 5 Z M41 5 C40.67 6.32 40.34 7.64 40 9 C41.32 9.33 42.64 9.66 44 10 C44 8.35 44 6.7 44 5 C43.01 5 42.02 5 41 5 Z M70 5 C70 6.65 70 8.3 70 10 C70.33 10 70.66 10 71 10 C71 8.35 71 6.7 71 5 C70.67 5 70.34 5 70 5 Z " fill="#595959" transform="translate(247,103)"/>
<path d="M0 0 C27 0 54 0 81 0 C81.495 1.485 81.495 1.485 82 3 C81.67 3.66 81.34 4.32 81 5 C81 6.32 81 7.64 81 9 C82.65 9.33 84.3 9.66 86 10 C85.67 11.65 85.34 13.3 85 15 C78.73 15 72.46 15 66 15 C65.01 12.525 65.01 12.525 64 10 C63.34 10 62.68 10 62 10 C61.67 11.65 61.34 13.3 61 15 C59.68 14.34 58.36 13.68 57 13 C56.01 13.66 55.02 14.32 54 15 C50.43103555 15.45561248 48.70239654 15.50728639 45.75 13.375 C43.76381786 10.67946709 42.87705206 8.21585756 42 5 C42 7.97 42 10.94 42 14 C40.68 14.33 39.36 14.66 38 15 C37 14 37 14 36.90234375 11.93359375 C36.91394531 11.10988281 36.92554688 10.28617188 36.9375 9.4375 C36.94652344 8.61121094 36.95554688 7.78492187 36.96484375 6.93359375 C36.97644531 6.29550781 36.98804688 5.65742187 37 5 C36.34 5.66 35.68 6.32 35 7 C35.020625 7.99 35.04125 8.98 35.0625 10 C35.041875 10.99 35.02125 11.98 35 13 C30.42734569 16.04843621 25.87785396 15.32887593 20.5 15.3125 C18.91251953 15.33666992 18.91251953 15.33666992 17.29296875 15.36132812 C16.27847656 15.36197266 15.26398438 15.36261719 14.21875 15.36328125 C12.8255957 15.36775269 12.8255957 15.36775269 11.40429688 15.37231445 C8.58170822 14.93522594 7.67089112 14.28079418 6 12 C6 11.34 6 10.68 6 10 C5.34 10 4.68 10 4 10 C4 11.65 4 13.3 4 15 C2.68 15 1.36 15 0 15 C0 10.05 0 5.1 0 0 Z M50 5 C49.67 6.32 49.34 7.64 49 9 C50.32 9 51.64 9 53 9 C52.67 7.68 52.34 6.36 52 5 C51.34 5 50.68 5 50 5 Z M11 8 C12 10 12 10 12 10 Z " fill="#575757" transform="translate(54,103)"/>
<path d="M0 0 C1.34771484 0.01740234 1.34771484 0.01740234 2.72265625 0.03515625 C3.61855469 0.04417969 4.51445312 0.05320312 5.4375 0.0625 C6.59958984 0.07990234 6.59958984 0.07990234 7.78515625 0.09765625 C8.44515625 0.09765625 9.10515625 0.09765625 9.78515625 0.09765625 C18.78515625 0.09765625 27.78515625 0.09765625 36.78515625 0.09765625 C38.3924126 3.31216894 37.8426381 6.53378161 37.78515625 10.09765625 C38.44515625 10.09765625 39.10515625 10.09765625 39.78515625 10.09765625 C39.77355469 9.45957031 39.76195312 8.82148437 39.75 8.1640625 C39.74097656 7.33777344 39.73195312 6.51148437 39.72265625 5.66015625 C39.71105469 4.83644531 39.69945312 4.01273437 39.6875 3.1640625 C39.78515625 1.09765625 39.78515625 1.09765625 40.78515625 0.09765625 C42.97155078 0.02506679 45.16016014 0.01391842 47.34765625 0.03515625 C49.14396484 0.04869141 49.14396484 0.04869141 50.9765625 0.0625 C51.90339844 0.07410156 52.83023438 0.08570312 53.78515625 0.09765625 C55.3924126 3.31216894 54.8426381 6.53378161 54.78515625 10.09765625 C55.77515625 10.09765625 56.76515625 10.09765625 57.78515625 10.09765625 C57.77355469 9.45957031 57.76195312 8.82148437 57.75 8.1640625 C57.74097656 7.33777344 57.73195312 6.51148437 57.72265625 5.66015625 C57.71105469 4.83644531 57.69945312 4.01273437 57.6875 3.1640625 C57.78515625 1.09765625 57.78515625 1.09765625 58.78515625 0.09765625 C60.74609375 -0.0703125 60.74609375 -0.0703125 63.16015625 -0.08984375 C64.34738281 -0.11111328 64.34738281 -0.11111328 65.55859375 -0.1328125 C67.78515625 0.09765625 67.78515625 0.09765625 70.78515625 2.09765625 C71.19359548 4.80969277 70.91852492 7.34137045 70.78515625 10.09765625 C72.10515625 10.09765625 73.42515625 10.09765625 74.78515625 10.09765625 C74.78515625 11.74765625 74.78515625 13.39765625 74.78515625 15.09765625 C73.83640625 14.91203125 72.88765625 14.72640625 71.91015625 14.53515625 C68.88646832 13.81078993 68.88646832 13.81078993 66.78515625 15.09765625 C65.11769565 15.18191719 63.44690438 15.20490768 61.77734375 15.1953125 C60.79121094 15.19208984 59.80507812 15.18886719 58.7890625 15.18554688 C57.75652344 15.17716797 56.72398437 15.16878906 55.66015625 15.16015625 C54.09974609 15.15338867 54.09974609 15.15338867 52.5078125 15.14648438 C49.93353663 15.13467577 47.35937479 15.118207 44.78515625 15.09765625 C44.29015625 14.10765625 44.29015625 14.10765625 43.78515625 13.09765625 C43.12515625 13.75765625 42.46515625 14.41765625 41.78515625 15.09765625 C38.41015625 15.22265625 38.41015625 15.22265625 34.78515625 15.09765625 C31.52866579 15.09765625 28.28611401 15.15601803 25.03125 15.23828125 C22.76173051 15.27546472 20.4921986 15.31189531 18.22265625 15.34765625 C17.07345703 15.38117188 15.92425781 15.4146875 14.74023438 15.44921875 C13.64001953 15.46210937 12.53980469 15.475 11.40625 15.48828125 C9.89695923 15.51970215 9.89695923 15.51970215 8.35717773 15.55175781 C5.78515625 15.09765625 5.78515625 15.09765625 3.93383789 13.07324219 C3.55477295 12.42129883 3.17570801 11.76935547 2.78515625 11.09765625 C2.45515625 12.41765625 2.12515625 13.73765625 1.78515625 15.09765625 C0.13515625 15.09765625 -1.51484375 15.09765625 -3.21484375 15.09765625 C-3.24169787 12.78521833 -3.26117216 10.47269355 -3.27734375 8.16015625 C-3.28894531 6.87238281 -3.30054688 5.58460937 -3.3125 4.2578125 C-3.18526363 0.14044372 -3.18526363 0.14044372 0 0 Z M63.78515625 5.09765625 C63.78515625 6.74765625 63.78515625 8.39765625 63.78515625 10.09765625 C64.44515625 10.09765625 65.10515625 10.09765625 65.78515625 10.09765625 C65.78515625 8.44765625 65.78515625 6.79765625 65.78515625 5.09765625 C65.12515625 5.09765625 64.46515625 5.09765625 63.78515625 5.09765625 Z M8.78515625 8.09765625 C9.78515625 11.09765625 9.78515625 11.09765625 9.78515625 11.09765625 Z " fill="#363636" transform="translate(158.21484375,102.90234375)"/>
<path d="M0 0 C11 0 22 0 33 0 C33.495 0.99 33.495 0.99 34 2 C31.36 2 28.72 2 26 2 C25.67 3.98 25.34 5.96 25 8 C25.99 8 26.98 8 28 8 C27.67 8.66 27.34 9.32 27 10 C26.01 9.67 25.02 9.34 24 9 C24.33 9.99 24.66 10.98 25 12 C27.64 12.33 30.28 12.66 33 13 C32.67 13.66 32.34 14.32 32 15 C28.22931168 15.086985 24.45888068 15.14038579 20.6875 15.1875 C19.61564453 15.21263672 18.54378906 15.23777344 17.43945312 15.26367188 C16.41142578 15.27333984 15.38339844 15.28300781 14.32421875 15.29296875 C13.37635498 15.3086792 12.42849121 15.32438965 11.4519043 15.34057617 C9 15 9 15 7.16723633 13.60668945 C6 12 6 12 6 10 C5.34 10 4.68 10 4 10 C4 11.65 4 13.3 4 15 C2.68 15 1.36 15 0 15 C0 10.05 0 5.1 0 0 Z M11 8 C12 10 12 10 12 10 Z " fill="#414141" transform="translate(54,103)"/>
<path d="M0 0 C7.59 0 15.18 0 23 0 C23.33 0.99 23.66 1.98 24 3 C23.67 3.66 23.34 4.32 23 5 C23 6.32 23 7.64 23 9 C25.475 9.495 25.475 9.495 28 10 C27.67 11.65 27.34 13.3 27 15 C20.73 15 14.46 15 8 15 C7.34 13.35 6.68 11.7 6 10 C5.34 10 4.68 10 4 10 C3.67 11.65 3.34 13.3 3 15 C0.525 14.01 0.525 14.01 -2 13 C-2 12.34 -2 11.68 -2 11 C-1.34 11 -0.68 11 0 11 C-0.185625 9.741875 -0.37125 8.48375 -0.5625 7.1875 C-1.00732761 4.17255732 -0.99843846 2.99531539 0 0 Z " fill="#444544" transform="translate(112,103)"/>
<path d="M0 0 C4.80139866 -0.07484195 9.60244862 -0.12892454 14.40429688 -0.16479492 C16.03358891 -0.17976766 17.66284145 -0.20015321 19.29199219 -0.22631836 C40.92650383 -0.56477238 40.92650383 -0.56477238 48.625 5.6875 C49.40875 6.450625 50.1925 7.21375 51 8 C50.67 8.66 50.34 9.32 50 10 C49.360625 9.401875 48.72125 8.80375 48.0625 8.1875 C34.7354746 -1.33180385 15.7739162 2.42211189 1 2 C1 26.42 1 50.84 1 76 C6.960625 75.87625 12.92125 75.7525 19.0625 75.625 C20.93043213 75.59100098 22.79836426 75.55700195 24.72290039 75.52197266 C26.22283624 75.48672839 27.7227563 75.45080296 29.22265625 75.4140625 C29.98574097 75.40270264 30.74882568 75.39134277 31.53503418 75.37963867 C36.37577723 75.25021955 40.37600867 74.41633149 45 73 C47.4375 73.375 47.4375 73.375 49 74 C43.14184011 77.02502956 38.44340114 77.40481634 31.91015625 77.29296875 C30.4933683 77.28660149 30.4933683 77.28660149 29.04795837 77.28010559 C26.05250676 77.26340933 23.0577458 77.22577406 20.0625 77.1875 C18.02279622 77.17244146 15.98308183 77.1587551 13.94335938 77.14648438 C8.96197639 77.11353547 3.98110501 77.06181604 -1 77 C-1.02313836 67.25576086 -1.04092273 57.51152822 -1.05181217 47.76726723 C-1.05703772 43.24294695 -1.06412944 38.71864542 -1.07543945 34.19433594 C-1.08627995 29.83069041 -1.09227932 25.46706295 -1.09487724 21.103405 C-1.09672939 19.43598521 -1.10034599 17.76856645 -1.10573006 16.10115433 C-1.11295589 13.77135303 -1.11399029 11.44162705 -1.11352539 9.11181641 C-1.11712067 8.41770157 -1.12071594 7.72358673 -1.12442017 7.00843811 C-1.11405216 2.22810432 -1.11405216 2.22810432 0 0 Z " fill="#515151" transform="translate(134,19)"/>
<path d="M0 0 C4.31248609 -0.02886537 8.62494762 -0.04675255 12.9375 -0.0625 C14.78504883 -0.07506836 14.78504883 -0.07506836 16.66992188 -0.08789062 C17.83974609 -0.09111328 19.00957031 -0.09433594 20.21484375 -0.09765625 C21.84087524 -0.10551147 21.84087524 -0.10551147 23.49975586 -0.11352539 C26 0 26 0 27 1 C27.07179964 2.51928038 27.08392007 4.04167482 27.0625 5.5625 C27.05347656 6.38878906 27.04445313 7.21507813 27.03515625 8.06640625 C27.02355469 8.70449219 27.01195312 9.34257813 27 10 C28.32 9.67 29.64 9.34 31 9 C31.495 11.475 31.495 11.475 32 14 C28.64961743 14.83759564 26.2704774 15.24052591 23 14 C22.34 13.34 21.68 12.68 21 12 C20.01 13.485 20.01 13.485 19 15 C15.7421875 15.29296875 15.7421875 15.29296875 11.875 15.1875 C9.95300781 15.14689453 9.95300781 15.14689453 7.9921875 15.10546875 C7.00476563 15.07066406 6.01734375 15.03585938 5 15 C5 14.67 5 14.34 5 14 C7.97 14 10.94 14 14 14 C14 13.34 14 12.68 14 12 C12.02 12 10.04 12 8 12 C8 11.01 8 10.02 8 9 C9.65 9 11.3 9 13 9 C13 8.34 13 7.68 13 7 C11.35 7 9.7 7 8 7 C8 6.34 8 5.68 8 5 C9.98 4.67 11.96 4.34 14 4 C14 3.34 14 2.68 14 2 C9.71 1.67 5.42 1.34 1 1 C0.67 2.65 0.34 4.3 0 6 C-0.99 6 -1.98 6 -3 6 C-2 4 -1 2 0 0 Z M14 5 C14 6.65 14 8.3 14 10 C14.33 10 14.66 10 15 10 C15 8.35 15 6.7 15 5 C14.67 5 14.34 5 14 5 Z " fill="#3F4040" transform="translate(303,103)"/>
<path d="M0 0 C1.258125 -0.04125 2.51625 -0.0825 3.8125 -0.125 C4.52019531 -0.14820312 5.22789062 -0.17140625 5.95703125 -0.1953125 C8 0 8 0 11 2 C11.40843923 4.71203652 11.13336867 7.2437142 11 10 C11.06058594 9.36191406 11.12117188 8.72382812 11.18359375 8.06640625 C11.26738281 7.24011719 11.35117187 6.41382812 11.4375 5.5625 C11.51871094 4.73878906 11.59992188 3.91507812 11.68359375 3.06640625 C12 1 12 1 13 0 C14.51928038 -0.07179964 16.04167482 -0.08392007 17.5625 -0.0625 C18.38878906 -0.05347656 19.21507812 -0.04445313 20.06640625 -0.03515625 C20.70449219 -0.02355469 21.34257812 -0.01195313 22 0 C22 0.99 22 1.98 22 3 C20.68 3.33 19.36 3.66 18 4 C19.32 4.33 20.64 4.66 22 5 C22 5.99 22 6.98 22 8 C20.02 8 18.04 8 16 8 C16 8.99 16 9.98 16 11 C17.98 11 19.96 11 22 11 C22 11.66 22 12.32 22 13 C19.91731407 13.08126087 17.83371342 13.13930839 15.75 13.1875 C14.58984375 13.22230469 13.4296875 13.25710937 12.234375 13.29296875 C8.77731593 12.97982934 7.48434437 12.34290892 5 10 C4.34 11.32 3.68 12.64 3 14 C2.01 14 1.02 14 0 14 C0 9.38 0 4.76 0 0 Z " fill="#A3A4A4" transform="translate(248,104)"/>
<path d="M0 0 C0.79148438 -0.01417969 1.58296875 -0.02835937 2.3984375 -0.04296875 C4.625 0.1875 4.625 0.1875 7.625 2.1875 C8.03343923 4.89953652 7.75836867 7.4312142 7.625 10.1875 C8.945 10.1875 10.265 10.1875 11.625 10.1875 C11.625 11.8375 11.625 13.4875 11.625 15.1875 C10.67625 15.001875 9.7275 14.81625 8.75 14.625 C5.72631207 13.90063368 5.72631207 13.90063368 3.625 15.1875 C0.82303709 15.28611981 -1.94854047 15.32646076 -4.75 15.3125 C-5.51828125 15.31636719 -6.2865625 15.32023437 -7.078125 15.32421875 C-7.82320312 15.32292969 -8.56828125 15.32164063 -9.3359375 15.3203125 C-10.35373291 15.31862061 -10.35373291 15.31862061 -11.39208984 15.31689453 C-13.375 15.1875 -13.375 15.1875 -17.375 14.1875 C-17.375 10.2275 -17.375 6.2675 -17.375 2.1875 C-15.725 2.1875 -14.075 2.1875 -12.375 2.1875 C-12.375 5.8175 -12.375 9.4475 -12.375 13.1875 C-7.095 13.1875 -1.815 13.1875 3.625 13.1875 C3.625 12.5275 3.625 11.8675 3.625 11.1875 C2.305 11.1875 0.985 11.1875 -0.375 11.1875 C-0.375 8.8775 -0.375 6.5675 -0.375 4.1875 C0.945 4.5175 2.265 4.8475 3.625 5.1875 C3.955 6.8375 4.285 8.4875 4.625 10.1875 C5.285 10.1875 5.945 10.1875 6.625 10.1875 C6.625 7.8775 6.625 5.5675 6.625 3.1875 C3.325 2.8575 0.025 2.5275 -3.375 2.1875 C-3.375 5.4875 -3.375 8.7875 -3.375 12.1875 C-5.355 12.1875 -7.335 12.1875 -9.375 12.1875 C-9.375 8.8875 -9.375 5.5875 -9.375 2.1875 C-9.045 2.1875 -8.715 2.1875 -8.375 2.1875 C-8.375 4.8275 -8.375 7.4675 -8.375 10.1875 C-7.385 10.1875 -6.395 10.1875 -5.375 10.1875 C-5.38660156 9.54941406 -5.39820313 8.91132812 -5.41015625 8.25390625 C-5.41917969 7.42761719 -5.42820313 6.60132812 -5.4375 5.75 C-5.44910156 4.92628906 -5.46070313 4.10257812 -5.47265625 3.25390625 C-5.29266308 -0.55474917 -3.33090902 0.0269491 0 0 Z M0.625 5.1875 C0.625 6.8375 0.625 8.4875 0.625 10.1875 C1.285 10.1875 1.945 10.1875 2.625 10.1875 C2.625 8.5375 2.625 6.8875 2.625 5.1875 C1.965 5.1875 1.305 5.1875 0.625 5.1875 Z " fill="#919191" transform="translate(221.375,102.8125)"/>
<path d="M0 0 C2.97 0 5.94 0 9 0 C9.33 2.64 9.66 5.28 10 8 C11.65 8.33 13.3 8.66 15 9 C14.67 10.65 14.34 12.3 14 14 C9.38 14 4.76 14 0 14 C0 9.38 0 4.76 0 0 Z " fill="#ABABAB" transform="translate(125,104)"/>
<path d="M0 0 C1.60875 -0.061875 3.2175 -0.12375 4.875 -0.1875 C5.77992187 -0.22230469 6.68484375 -0.25710937 7.6171875 -0.29296875 C8.79667969 -0.14794922 8.79667969 -0.14794922 10 0 C12.35119399 3.52679099 12.21443452 5.02879485 12.125 9.1875 C12.10695313 10.27417969 12.08890625 11.36085938 12.0703125 12.48046875 C12.03550781 13.72763672 12.03550781 13.72763672 12 15 C10.35 14.67 8.7 14.34 7 14 C6.67 12.68 6.34 11.36 6 10 C5.34 10 4.68 10 4 10 C4 11.65 4 13.3 4 15 C2.68 15 1.36 15 0 15 C0 10.05 0 5.1 0 0 Z " fill="#979797" transform="translate(54,103)"/>
<path d="M0 0 C11.33333333 0 22.66666667 0 34 0 C34.495 0.99 34.495 0.99 35 2 C33.72125 1.95875 32.4425 1.9175 31.125 1.875 C28.98128508 1.75787127 28.98128508 1.75787127 27 2 C24.60435072 3.94967279 24.60435072 3.94967279 24.8125 7.5625 C24.60712194 10.82963695 24.60712194 10.82963695 26 12 C27.34747084 12.23075082 28.70377565 12.41153063 30.0625 12.5625 C31.361875 12.706875 32.66125 12.85125 34 13 C33.67 13.66 33.34 14.32 33 15 C25 15 17 15 9 15 C8.34 13.68 7.68 12.36 7 11 C7.99 11.66 8.98 12.32 10 13 C13.19806665 13.4603764 13.19806665 13.4603764 16.6875 13.625 C17.86699219 13.69976562 19.04648437 13.77453125 20.26171875 13.8515625 C21.61716797 13.92503906 21.61716797 13.92503906 23 14 C23 13.34 23 12.68 23 12 C21.02 12 19.04 12 17 12 C17 11.01 17 10.02 17 9 C18.65 9 20.3 9 22 9 C22.33 8.01 22.66 7.02 23 6 C21.35 6 19.7 6 18 6 C18.33 5.34 18.66 4.68 19 4 C20.32 4 21.64 4 23 4 C23 3.01 23 2.02 23 1 C18.545 1.495 18.545 1.495 14 2 C13.67 5.3 13.34 8.6 13 12 C12.34 11.67 11.68 11.34 11 11 C11 8.36 11 5.72 11 3 C7.7 2.34 4.4 1.68 1 1 C1 5.29 1 9.58 1 14 C0.67 14 0.34 14 0 14 C0 9.38 0 4.76 0 0 Z " fill="#2D2E2E" transform="translate(247,103)"/>
<path d="M0 0 C0.9075 0.00257812 1.815 0.00515625 2.75 0.0078125 C4.11125 0.00394531 4.11125 0.00394531 5.5 0 C7.75 0.1328125 7.75 0.1328125 8.75 1.1328125 C8.79092937 3.46578683 8.79241723 5.79986475 8.75 8.1328125 C8.09 8.1328125 7.43 8.1328125 6.75 8.1328125 C6.75 9.4528125 6.75 10.7728125 6.75 12.1328125 C7.41 12.1328125 8.07 12.1328125 8.75 12.1328125 C8.75 12.7928125 8.75 13.4528125 8.75 14.1328125 C5.86562221 12.83981556 3.87780579 11.47339887 1.75 9.1328125 C1.75 11.1128125 1.75 13.0928125 1.75 15.1328125 C0.1 15.1328125 -1.55 15.1328125 -3.25 15.1328125 C-3.27685412 12.82037458 -3.29632841 10.5078498 -3.3125 8.1953125 C-3.32410156 6.90753906 -3.33570313 5.61976562 -3.34765625 4.29296875 C-3.22086861 0.19012072 -3.22086861 0.19012072 0 0 Z " fill="#D9DADA" transform="translate(158.25,102.8671875)"/>
<path d="M0 0 C3.3 0 6.6 0 10 0 C10 3.96 10 7.92 10 12 C6.7 12 3.4 12 0 12 C0 8.04 0 4.08 0 0 Z " fill="#ACADAD" transform="translate(180,105)"/>
<path d="M0 0 C1.258125 -0.04125 2.51625 -0.0825 3.8125 -0.125 C4.52019531 -0.14820312 5.22789062 -0.17140625 5.95703125 -0.1953125 C8 0 8 0 11 2 C11.1875 5.625 11.1875 5.625 11 9 C12.32 8.67 13.64 8.34 15 8 C15.33 9.65 15.66 11.3 16 13 C14.3125 13.6875 14.3125 13.6875 12 14 C9.3125 12.75 9.3125 12.75 7 11 C6.67 10.01 6.34 9.02 6 8 C5.01 8 4.02 8 3 8 C3 7.34 3 6.68 3 6 C3.639375 5.87625 4.27875 5.7525 4.9375 5.625 C5.618125 5.41875 6.29875 5.2125 7 5 C7.33 4.34 7.66 3.68 8 3 C6.02 3 4.04 3 2 3 C2 6.3 2 9.6 2 13 C1.34 12.67 0.68 12.34 0 12 C0 8.04 0 4.08 0 0 Z " fill="#D3D3D3" transform="translate(319,104)"/>
<path d="M0 0 C0.99 0 1.98 0 3 0 C3 3.3 3 6.6 3 10 C4.98 10 6.96 10 9 10 C9 6.7 9 3.4 9 0 C16.75 -0.125 16.75 -0.125 19 1 C19 3.31 19 5.62 19 8 C18.34 8 17.68 8 17 8 C16.731875 7.195625 16.46375 6.39125 16.1875 5.5625 C15.795625 4.716875 15.40375 3.87125 15 3 C14.01 2.67 13.02 2.34 12 2 C12 4.31 12 6.62 12 9 C13.32 9 14.64 9 16 9 C16 9.66 16 10.32 16 11 C10.72 11 5.44 11 0 11 C0 7.37 0 3.74 0 0 Z " fill="#E4E4E4" transform="translate(209,105)"/>
<path d="M0 0 C0.99 0 1.98 0 3 0 C4.5703125 1.6796875 4.5703125 1.6796875 6.125 3.875 C6.64320313 4.59429687 7.16140625 5.31359375 7.6953125 6.0546875 C9 8 9 8 10 10 C7.97954558 9.39816251 5.97888961 8.72693904 4 8 C3.67 7.34 3.34 6.68 3 6 C1.35 6 -0.3 6 -2 6 C-3.47953926 13.66670345 -2.38010317 17.42984524 2 24 C-0.86697492 22.71480435 -2.97607712 21.42870746 -5 19 C-5 18.34 -5 17.68 -5 17 C-5.66 17 -6.32 17 -7 17 C-8.0574025 13.20909955 -8.29272899 11.56623839 -6.453125 8.0078125 C-5.36257813 6.58082031 -5.36257813 6.58082031 -4.25 5.125 C-3.53328125 4.15820312 -2.8165625 3.19140625 -2.078125 2.1953125 C-1.39234375 1.47085938 -0.7065625 0.74640625 0 0 Z " fill="#513394" transform="translate(277,62)"/>
<path d="M0 0 C1.23556641 0.01740234 1.23556641 0.01740234 2.49609375 0.03515625 C3.32238281 0.04417969 4.14867187 0.05320312 5 0.0625 C5.63808594 0.07410156 6.27617187 0.08570312 6.93359375 0.09765625 C6.93359375 1.08765625 6.93359375 2.07765625 6.93359375 3.09765625 C5.61359375 3.42765625 4.29359375 3.75765625 2.93359375 4.09765625 C4.25359375 4.42765625 5.57359375 4.75765625 6.93359375 5.09765625 C6.93359375 6.08765625 6.93359375 7.07765625 6.93359375 8.09765625 C4.95359375 8.09765625 2.97359375 8.09765625 0.93359375 8.09765625 C0.93359375 9.08765625 0.93359375 10.07765625 0.93359375 11.09765625 C2.91359375 11.09765625 4.89359375 11.09765625 6.93359375 11.09765625 C6.93359375 11.75765625 6.93359375 12.41765625 6.93359375 13.09765625 C5.45452483 13.12454841 3.97531892 13.14400246 2.49609375 13.16015625 C1.26052734 13.17755859 1.26052734 13.17755859 0 13.1953125 C-2.06640625 13.09765625 -2.06640625 13.09765625 -3.06640625 12.09765625 C-3.16491796 10.26649742 -3.19613254 8.43145692 -3.19140625 6.59765625 C-3.19398438 5.59734375 -3.1965625 4.59703125 -3.19921875 3.56640625 C-3.01502055 0.14248679 -3.01502055 0.14248679 0 0 Z " fill="#E0E1E1" transform="translate(263.06640625,103.90234375)"/>
<path d="M0 0 C4.29 0 8.58 0 13 0 C13 1.32 13 2.64 13 4 C11.02 4 9.04 4 7 4 C7 4.66 7 5.32 7 6 C8.65 6 10.3 6 12 6 C12 6.66 12 7.32 12 8 C10.35 8 8.7 8 7 8 C7 8.99 7 9.98 7 11 C8.98 11 10.96 11 13 11 C13 11.66 13 12.32 13 13 C10.03 13 7.06 13 4 13 C3.67 9.7 3.34 6.4 3 3 C2.34 3.66 1.68 4.32 1 5 C0.67 3.35 0.34 1.7 0 0 Z " fill="#E1E2E2" transform="translate(304,104)"/>
<path d="M0 0 C1.65 0 3.3 0 5 0 C5 0.66 5 1.32 5 2 C7.31 2.33 9.62 2.66 12 3 C12 3.66 12 4.32 12 5 C19.59 5 27.18 5 35 5 C35 4.34 35 3.68 35 3 C36.65 2.67 38.3 2.34 40 2 C40 1.34 40 0.68 40 0 C41.65 0 43.3 0 45 0 C41.02453881 5.05967788 35.3329962 7.47844562 29.03662109 8.23632812 C18.96043876 8.97015473 9.37583238 8.60785632 1.375 1.75 C0.694375 0.88375 0.694375 0.88375 0 0 Z " fill="#513394" transform="translate(279,86)"/>
<path d="M0 0 C3.125 -0.1875 3.125 -0.1875 6 0 C6.33 1.32 6.66 2.64 7 4 C5.68 4 4.36 4 3 4 C3.99 4.5775 4.98 5.155 6 5.75 C6.99 6.4925 7.98 7.235 9 8 C9 9.32 9 10.64 9 12 C5.7 12 2.4 12 -1 12 C-1.33 10.68 -1.66 9.36 -2 8 C-0.68 8 0.64 8 2 8 C1.01 7.67 0.02 7.34 -1 7 C-1.8125 5.125 -1.8125 5.125 -2 3 C-1.34 2.01 -0.68 1.02 0 0 Z " fill="#DFDFDF" transform="translate(80,104)"/>
<path d="M0 0 C6.0546875 -0.1953125 6.0546875 -0.1953125 8 0 C10 2 10 2 10.0625 5.9375 C10.03285156 6.62714844 10.00320312 7.31679687 9.97265625 8.02734375 C9.90332679 10.21506135 9.90332679 10.21506135 11 13 C9.0625 12.6875 9.0625 12.6875 7 12 C6.67 11.01 6.34 10.02 6 9 C3.98491642 8.26676204 3.98491642 8.26676204 2 8 C1.67 9.32 1.34 10.64 1 12 C0.03929566 9.11788698 -0.10581883 7.30149956 -0.0625 4.3125 C-0.05347656 3.50425781 -0.04445313 2.69601563 -0.03515625 1.86328125 C-0.02355469 1.24839844 -0.01195313 0.63351563 0 0 Z " fill="#F0F1F0" transform="translate(113,104)"/>
<path d="M0 0 C1.32 0 2.64 0 4 0 C3.2352188 17.72380442 3.2352188 17.72380442 -1.625 23.375 C-7.7671347 28.99792547 -13.18734256 31.681545 -21.6015625 31.33203125 C-26.39102887 30.66899437 -29.98570876 28.67619416 -34 26 C-33.67 25.34 -33.34 24.68 -33 24 C-32.195625 24.639375 -31.39125 25.27875 -30.5625 25.9375 C-25.47417252 29.30971704 -20.1775252 29.40597927 -14.3125 28.3125 C-7.48353322 25.60668297 -2.71305881 21.94003526 0.25 15.125 C1.49754364 9.9269015 1.25368855 5.17146526 0 0 Z " fill="#513394" transform="translate(321,48)"/>
<path d="M0 0 C1.875 1.5 1.875 1.5 3 3 C2.67 3.99 2.34 4.98 2 6 C1.34 6 0.68 6 0 6 C0 5.01 0 4.02 0 3 C-1.65 3.33 -3.3 3.66 -5 4 C-5 5.65 -5 7.3 -5 9 C-3.35 9.33 -1.7 9.66 0 10 C0 9.01 0 8.02 0 7 C0.99 7 1.98 7 3 7 C2.67 8.65 2.34 10.3 2 12 C0.54207116 12.05399736 -0.91642712 12.09279177 -2.375 12.125 C-3.18710937 12.14820312 -3.99921875 12.17140625 -4.8359375 12.1953125 C-7 12 -7 12 -9 10 C-9.55021834 3.94759825 -9.55021834 3.94759825 -7.875 1.0625 C-5.11019567 -0.50422245 -3.11811483 -0.38976435 0 0 Z " fill="#EEEFEF" transform="translate(280,104)"/>
<path d="M0 0 C0.7425 0.61875 1.485 1.2375 2.25 1.875 C2.25 2.535 2.25 3.195 2.25 3.875 C-1.34775213 3.25603189 -4.50701261 2.27575316 -7.875 0.875 C-10.49234287 -0.20694112 -13.0615556 -1.22885187 -15.75 -2.125 C-15.75 -2.785 -15.75 -3.445 -15.75 -4.125 C-23.30137932 -4.42571865 -30.33856436 -3.55125566 -37.75 -2.125 C-28.59406425 -11.28093575 -9.54424923 -5.94559788 0 0 Z " fill="#513394" transform="translate(323.75,25.125)"/>
<path d="M0 0 C3.3 0 6.6 0 10 0 C10 0.66 10 1.32 10 2 C7.69 2 5.38 2 3 2 C3 2.66 3 3.32 3 4 C4.98 4 6.96 4 9 4 C9 4.99 9 5.98 9 7 C7.02 7 5.04 7 3 7 C3 7.99 3 8.98 3 10 C5.31 10 7.62 10 10 10 C10 10.66 10 11.32 10 12 C6.7 12 3.4 12 0 12 C0 8.04 0 4.08 0 0 Z " fill="#EFEFEF" transform="translate(169,105)"/>
<path d="M0 0 C1.79244141 0.01740234 1.79244141 0.01740234 3.62109375 0.03515625 C5.41740234 0.04869141 5.41740234 0.04869141 7.25 0.0625 C8.17683594 0.07410156 9.10367188 0.08570312 10.05859375 0.09765625 C10.05859375 0.75765625 10.05859375 1.41765625 10.05859375 2.09765625 C7.41859375 2.09765625 4.77859375 2.09765625 2.05859375 2.09765625 C2.05859375 6.05765625 2.05859375 10.01765625 2.05859375 14.09765625 C3.04859375 14.42765625 4.03859375 14.75765625 5.05859375 15.09765625 C3.73859375 15.09765625 2.41859375 15.09765625 1.05859375 15.09765625 C0.05362523 12.08275068 -0.04475928 10.05583933 -0.00390625 6.91015625 C0.00511719 6.00910156 0.01414063 5.10804687 0.0234375 4.1796875 C0.03503906 3.49261719 0.04664063 2.80554688 0.05859375 2.09765625 C-0.60140625 2.09765625 -1.26140625 2.09765625 -1.94140625 2.09765625 C-1.94140625 4.73765625 -1.94140625 7.37765625 -1.94140625 10.09765625 C-3.92140625 11.08765625 -3.92140625 11.08765625 -5.94140625 12.09765625 C-6.94140625 11.09765625 -6.94140625 11.09765625 -7.0390625 9.03125 C-7.02746094 8.20753906 -7.01585937 7.38382812 -7.00390625 6.53515625 C-6.99488281 5.70886719 -6.98585937 4.88257812 -6.9765625 4.03125 C-6.96496094 3.39316406 -6.95335937 2.75507812 -6.94140625 2.09765625 C-6.61140625 2.09765625 -6.28140625 2.09765625 -5.94140625 2.09765625 C-5.94140625 4.73765625 -5.94140625 7.37765625 -5.94140625 10.09765625 C-5.28140625 10.09765625 -4.62140625 10.09765625 -3.94140625 10.09765625 C-3.95300781 9.45957031 -3.96460938 8.82148437 -3.9765625 8.1640625 C-3.99009766 6.92462891 -3.99009766 6.92462891 -4.00390625 5.66015625 C-4.01550781 4.83644531 -4.02710938 4.01273437 -4.0390625 3.1640625 C-3.88296719 -0.13891421 -3.35803623 0.11148859 0 0 Z " fill="#262626" transform="translate(201.94140625,102.90234375)"/>
<path d="M0 0 C0 3.63 0 7.26 0 11 C-0.66 11 -1.32 11 -2 11 C-2.33 10.34 -2.66 9.68 -3 9 C-3.99 10.485 -3.99 10.485 -5 12 C-5.99 12 -6.98 12 -8 12 C-10.42857143 5.71428571 -10.42857143 5.71428571 -9 2 C-8.01 2.33 -7.02 2.66 -6 3 C-5.67 2.34 -5.34 1.68 -5 1 C-3.3176559 0.47426747 -1.77322566 0 0 0 Z " fill="#C8C9C8" transform="translate(308,106)"/>
<path d="M0 0 C2.4294516 3.6441774 2.16179575 5.71241272 2 10 C1.34 10 0.68 10 0 10 C-0.33 7.69 -0.66 5.38 -1 3 C-2.65 3 -4.3 3 -6 3 C-6 5.31 -6 7.62 -6 10 C-4.35 10 -2.7 10 -1 10 C-1 10.66 -1 11.32 -1 12 C-3.33294775 12.04241723 -5.66702567 12.04092937 -8 12 C-9.58867866 10.41132134 -9.20794039 8.75310484 -9.25 6.5625 C-9.27578125 5.75941406 -9.3015625 4.95632812 -9.328125 4.12890625 C-9.21984375 3.42636719 -9.1115625 2.72382812 -9 2 C-5.54970958 -0.30019361 -4.05445642 -0.43132515 0 0 Z " fill="#DBDCDC" transform="translate(293,104)"/>
<path d="M0 0 C1.65 0 3.3 0 5 0 C5 3.96 5 7.92 5 12 C10.28 12 15.56 12 21 12 C21 12.33 21 12.66 21 13 C18.24993392 13.0270203 15.50013454 13.04684883 12.75 13.0625 C11.97269531 13.07087891 11.19539062 13.07925781 10.39453125 13.08789062 C9.26337891 13.09272461 9.26337891 13.09272461 8.109375 13.09765625 C7.07248535 13.10551147 7.07248535 13.10551147 6.01464844 13.11352539 C4 13 4 13 0 12 C0 8.04 0 4.08 0 0 Z " fill="#4A4A4A" transform="translate(204,105)"/>
<path d="M0 0 C2.09279572 1.55201027 3.38897322 2.92867985 5 5 C4.071875 4.566875 4.071875 4.566875 3.125 4.125 C-1.15866124 2.58288195 -5.52928212 1.81601453 -10 1 C-10 0.34 -10 -0.32 -10 -1 C-17.28676748 -2.82169187 -22.92422352 -2.04108937 -30 0 C-32.203125 -0.44140625 -32.203125 -0.44140625 -34 -1 C-22.56342632 -5.65216557 -11.21006959 -5.38152114 0 0 Z " fill="#513394" transform="translate(248,23)"/>
<path d="M0 0 C2.97 0 5.94 0 9 0 C9 0.99 9 1.98 9 3 C6.69 3 4.38 3 2 3 C2 3.99 2 4.98 2 6 C3.98 6 5.96 6 8 6 C8 6.66 8 7.32 8 8 C6.02 8 4.04 8 2 8 C2 8.99 2 9.98 2 11 C4.31 11 6.62 11 9 11 C9 11.66 9 12.32 9 13 C6.03 13 3.06 13 0 13 C0 8.71 0 4.42 0 0 Z " fill="#E4E4E4" transform="translate(68,104)"/>
<path d="M0 0 C0.99 0 1.98 0 3 0 C3.33 2.97 3.66 5.94 4 9 C4.99 8.67 5.98 8.34 7 8 C7.33 5.36 7.66 2.72 8 0 C8.66 0 9.32 0 10 0 C10.02687279 1.81242052 10.04633715 3.62495233 10.0625 5.4375 C10.07410156 6.44683594 10.08570313 7.45617187 10.09765625 8.49609375 C10 11 10 11 9 12 C5.5625 12.1875 5.5625 12.1875 2 12 C0 10 0 10 -0.1953125 7.6171875 C-0.17210937 6.71226563 -0.14890625 5.80734375 -0.125 4.875 C-0.10695312 3.96492188 -0.08890625 3.05484375 -0.0703125 2.1171875 C-0.04710937 1.41851562 -0.02390625 0.71984375 0 0 Z " fill="#E2E2E2" transform="translate(192,105)"/>
<path d="M0 0 C1.4540625 0.2165625 1.4540625 0.2165625 2.9375 0.4375 C5.0894437 3.66541555 5.13836443 4.72150809 4.9375 8.4375 C2.9375 5.4375 2.9375 5.4375 2.9375 3.4375 C1.2875 3.4375 -0.3625 3.4375 -2.0625 3.4375 C-1.88120185 6.87543339 -1.88120185 6.87543339 -1.0625 10.4375 C0.87347032 11.95044288 0.87347032 11.95044288 2.9375 12.4375 C-0.04038882 13.34741047 -1.49747994 13.69710381 -4.375 12.375 C-6.0625 10.4375 -6.0625 10.4375 -6.5 7.5 C-5.8255783 2.7790481 -4.89978193 0.69996885 0 0 Z " fill="#DFE0DF" transform="translate(105.0625,103.5625)"/>
<path d="M0 0 C1.97986082 0.11347619 3.95891598 0.2410935 5.9375 0.375 C7.03964844 0.44460937 8.14179688 0.51421875 9.27734375 0.5859375 C10.62505859 0.79089844 10.62505859 0.79089844 12 1 C12.33 1.66 12.66 2.32 13 3 C18.94 3.33 24.88 3.66 31 4 C27.99032033 7.00967967 24.59930121 6.42445439 20.5625 6.4375 C19.35037842 6.44330078 19.35037842 6.44330078 18.11376953 6.44921875 C11.23675356 6.31741729 5.88895505 4.63195466 0 1 C0 0.67 0 0.34 0 0 Z " fill="#513394" transform="translate(209,88)"/>
<path d="M0 0 C2 1.125 2 1.125 4 3 C4.6875 5.625 4.6875 5.625 4 9 C2.00785716 12.32204747 -0.13556251 15.38008766 -3 18 C-4.32 18 -5.64 18 -7 18 C-9.25 15.5 -9.25 15.5 -11 13 C-10.67 12.34 -10.34 11.68 -10 11 C-9.608125 11.495 -9.21625 11.99 -8.8125 12.5 C-6.44908285 14.45593143 -4.98564997 14.24207973 -2 14 C-0.02905192 9.07262981 0.1799928 5.21979128 0 0 Z " fill="#513394" transform="translate(257,32)"/>
<path d="M0 0 C4.95 0 9.9 0 15 0 C15 0.66 15 1.32 15 2 C14.154375 2.01417969 13.30875 2.02835938 12.4375 2.04296875 C4.8881607 2.36038415 -0.08456829 3.24730671 -6 8 C-7.2375 8.8971875 -7.2375 8.8971875 -8.5 9.8125 C-8.995 10.204375 -9.49 10.59625 -10 11 C-10.33 9.68 -10.66 8.36 -11 7 C-10.01 6.67 -9.02 6.34 -8 6 C-8 5.34 -8 4.68 -8 4 C-4.77208445 1.8480563 -3.71599191 1.79913557 0 2 C0 1.34 0 0.68 0 0 Z " fill="#513394" transform="translate(293,34)"/>
<path d="M0 0 C6.93 0 13.86 0 21 0 C21.33 0.66 21.66 1.32 22 2 C20.01432292 1.96744792 18.02864583 1.93489583 16.04296875 1.90234375 C13.79694539 1.91736783 13.79694539 1.91736783 11 3 C11 2.34 11 1.68 11 1 C8.03 1 5.06 1 2 1 C2 5.29 2 9.58 2 14 C4.97 14 7.94 14 11 14 C11 14.33 11 14.66 11 15 C7.7 15 4.4 15 1 15 C-1.25495121 10.49009758 -1.2430836 6.94269981 -1 2 C-0.67 1.34 -0.34 0.68 0 0 Z " fill="#353535" transform="translate(66,103)"/>
<path d="M0 0 C0.66 0 1.32 0 2 0 C2.24234375 0.64066406 2.4846875 1.28132813 2.734375 1.94140625 C4.79284627 7.25384557 7.03769679 12.13335901 10 17 C12.97 17 15.94 17 19 17 C18.67 15.02 18.34 13.04 18 11 C20.32789515 13.83395931 21.07377893 15.29511572 22 19 C17.38 19 12.76 19 8 19 C6.65929682 16.39939496 5.32726646 13.79495084 4 11.1875 C3.6184375 10.44951172 3.236875 9.71152344 2.84375 8.95117188 C2.4828125 8.23896484 2.121875 7.52675781 1.75 6.79296875 C1.41484375 6.1383667 1.0796875 5.48376465 0.734375 4.80932617 C0 3 0 3 0 0 Z " fill="#6B6B6B" transform="translate(43,77)"/>
<path d="M0 0 C3.3 0 6.6 0 10 0 C10 0.99 10 1.98 10 3 C8.68 3 7.36 3 6 3 C6 6.63 6 10.26 6 14 C5.01 14 4.02 14 3 14 C3 10.37 3 6.74 3 3 C2.01 3 1.02 3 0 3 C0 2.01 0 1.02 0 0 Z " fill="#D7D7D7" transform="translate(89,104)"/>
<path d="M0 0 C0.79148438 -0.01417969 1.58296875 -0.02835937 2.3984375 -0.04296875 C4.625 0.1875 4.625 0.1875 7.625 2.1875 C7.295 3.1775 6.965 4.1675 6.625 5.1875 C6.625 4.5275 6.625 3.8675 6.625 3.1875 C3.325 2.8575 0.025 2.5275 -3.375 2.1875 C-3.375 5.4875 -3.375 8.7875 -3.375 12.1875 C-5.355 12.1875 -7.335 12.1875 -9.375 12.1875 C-9.375 8.8875 -9.375 5.5875 -9.375 2.1875 C-9.045 2.1875 -8.715 2.1875 -8.375 2.1875 C-8.375 4.8275 -8.375 7.4675 -8.375 10.1875 C-7.385 10.1875 -6.395 10.1875 -5.375 10.1875 C-5.38660156 9.54941406 -5.39820313 8.91132812 -5.41015625 8.25390625 C-5.42369141 7.01447266 -5.42369141 7.01447266 -5.4375 5.75 C-5.44910156 4.92628906 -5.46070313 4.10257812 -5.47265625 3.25390625 C-5.29266308 -0.55474917 -3.33090902 0.0269491 0 0 Z " fill="#262626" transform="translate(221.375,102.8125)"/>
<path d="M0 0 C0.33 0 0.66 0 1 0 C1 3.96 1 7.92 1 12 C-0.65 11.67 -2.3 11.34 -4 11 C-4.12375 10.360625 -4.2475 9.72125 -4.375 9.0625 C-4.58125 8.381875 -4.7875 7.70125 -5 7 C-5.66 6.67 -6.32 6.34 -7 6 C-6.01 5.67 -5.02 5.34 -4 5 C-5.32 4.67 -6.64 4.34 -8 4 C-8 3.01 -8 2.02 -8 1 C-6.02 1 -4.04 1 -2 1 C-2 1.99 -2 2.98 -2 4 C-1.34 4 -0.68 4 0 4 C0 2.68 0 1.36 0 0 Z " fill="#929292" transform="translate(65,106)"/>
<path d="M0 0 C7.75 -0.125 7.75 -0.125 10 1 C10 2.65 10 4.3 10 6 C9.34 5.67 8.68 5.34 8 5 C8 4.34 8 3.68 8 3 C6.02 3 4.04 3 2 3 C2 6.3 2 9.6 2 13 C1.34 12.67 0.68 12.34 0 12 C0 8.04 0 4.08 0 0 Z " fill="#DADADA" transform="translate(319,104)"/>
<path d="M0 0 C1.37478516 0.01740234 1.37478516 0.01740234 2.77734375 0.03515625 C3.69644531 0.04417969 4.61554688 0.05320312 5.5625 0.0625 C6.27277344 0.07410156 6.98304688 0.08570312 7.71484375 0.09765625 C7.71484375 1.08765625 7.71484375 2.07765625 7.71484375 3.09765625 C4.74484375 2.76765625 1.77484375 2.43765625 -1.28515625 2.09765625 C-1.28515625 6.05765625 -1.28515625 10.01765625 -1.28515625 14.09765625 C-0.29515625 14.42765625 0.69484375 14.75765625 1.71484375 15.09765625 C0.06484375 15.09765625 -1.58515625 15.09765625 -3.28515625 15.09765625 C-3.31201037 12.78521833 -3.33148466 10.47269355 -3.34765625 8.16015625 C-3.35925781 6.87238281 -3.37085938 5.58460937 -3.3828125 4.2578125 C-3.2555354 0.13912544 -3.2555354 0.13912544 0 0 Z " fill="#2C2C2C" transform="translate(158.28515625,102.90234375)"/>
<path d="M0 0 C0.99 0 1.98 0 3 0 C3 3.3 3 6.6 3 10 C4.98 10 6.96 10 9 10 C9.33 9.34 9.66 8.68 10 8 C12.4375 8.375 12.4375 8.375 15 9 C15.33 9.66 15.66 10.32 16 11 C10.72 11 5.44 11 0 11 C0 7.37 0 3.74 0 0 Z " fill="#F9F9F9" transform="translate(209,105)"/>
<path d="M0 0 C1.05424115 2.68521423 1.12687274 3.7066664 -0.0390625 6.40234375 C-3.00107296 11.13718314 -5.80132216 15.29528426 -10 19 C-10.66 18.67 -11.32 18.34 -12 18 C-10.625 16 -10.625 16 -9 14 C-8.34 14 -7.68 14 -7 14 C-7 12.68 -7 11.36 -7 10 C-6.01 10 -5.02 10 -4 10 C-3.67 7.69 -3.34 5.38 -3 3 C-2.34 3 -1.68 3 -1 3 C-0.67 2.01 -0.34 1.02 0 0 Z " fill="#513394" transform="translate(336,67)"/>
<path d="M0 0 C0.33 0 0.66 0 1 0 C1 3.96 1 7.92 1 12 C0.67 11.34 0.34 10.68 0 10 C-2.31 10 -4.62 10 -7 10 C-7 9.01 -7 8.02 -7 7 C-5.02 7 -3.04 7 -1 7 C-1 6.01 -1 5.02 -1 4 C-2.98 4 -4.96 4 -7 4 C-7 3.34 -7 2.68 -7 2 C-4.69 2 -2.38 2 0 2 C0 1.34 0 0.68 0 0 Z " fill="#353535" transform="translate(179,105)"/>
<path d="M0 0 C0.99 0 1.98 0 3 0 C4.5703125 1.6796875 4.5703125 1.6796875 6.125 3.875 C6.64320313 4.59429687 7.16140625 5.31359375 7.6953125 6.0546875 C9 8 9 8 10 10 C7.97954558 9.39816251 5.97888961 8.72693904 4 8 C3.67 7.34 3.34 6.68 3 6 C0.69 6.33 -1.62 6.66 -4 7 C-2.79618552 4.50638429 -1.54571278 2.31856917 0 0 Z " fill="#513394" transform="translate(277,62)"/>
<path d="M0 0 C2.64 0 5.28 0 8 0 C8 3.63 8 7.26 8 11 C5.36 11 2.72 11 0 11 C0 9.35 0 7.7 0 6 C0.33 7.32 0.66 8.64 1 10 C2.65 9.67 4.3 9.34 6 9 C6 8.34 6 7.68 6 7 C5.34 6.34 4.68 5.68 4 5 C4.66 5 5.32 5 6 5 C6 4.01 6 3.02 6 2 C4.35 2 2.7 2 1 2 C0.67 2.66 0.34 3.32 0 4 C0 2.68 0 1.36 0 0 Z " fill="#F8F9F9" transform="translate(181,105)"/>
<path d="M0 0 C3.63 0 7.26 0 11 0 C11.33 1.65 11.66 3.3 12 5 C10.68 5.33 9.36 5.66 8 6 C7.67 5.01 7.34 4.02 7 3 C4.69 3 2.38 3 0 3 C0 2.01 0 1.02 0 0 Z " fill="#454545" transform="translate(128,112)"/>
<path d="M0 0 C3.125 -0.1875 3.125 -0.1875 6 0 C6.33 1.32 6.66 2.64 7 4 C5.68 4 4.36 4 3 4 C3.66 4.33 4.32 4.66 5 5 C5 5.66 5 6.32 5 7 C3.02 7 1.04 7 -1 7 C-1.625 5.1875 -1.625 5.1875 -2 3 C-1.34 2.01 -0.68 1.02 0 0 Z " fill="#E2E2E2" transform="translate(80,104)"/>
<path d="M0 0 C3.375 -0.1875 3.375 -0.1875 7 0 C9 3 9 3 8.625 6.1875 C8.41875 7.115625 8.2125 8.04375 8 9 C7.34 9 6.68 9 6 9 C6 8.34 6 7.68 6 7 C4.68 6.67 3.36 6.34 2 6 C3.65 6 5.3 6 7 6 C7 5.01 7 4.02 7 3 C5.02 3 3.04 3 1 3 C0.67 3.99 0.34 4.98 0 6 C0 4.02 0 2.04 0 0 Z " fill="#E9E9E9" transform="translate(249,104)"/>
<path d="M0 0 C1.875 1.5 1.875 1.5 3 3 C2.67 3.99 2.34 4.98 2 6 C1.34 6 0.68 6 0 6 C0 5.01 0 4.02 0 3 C-2.31 3.33 -4.62 3.66 -7 4 C-7.33 5.98 -7.66 7.96 -8 10 C-8.33 10 -8.66 10 -9 10 C-9.36103152 3.6217765 -9.36103152 3.6217765 -7.875 1.0625 C-5.11019567 -0.50422245 -3.11811483 -0.38976435 0 0 Z " fill="#D5D6D5" transform="translate(280,104)"/>
<path d="M0 0 C0.33 0.66 0.66 1.32 1 2 C-1.31 2 -3.62 2 -6 2 C-6 2.66 -6 3.32 -6 4 C-4.02 4 -2.04 4 0 4 C0 4.99 0 5.98 0 7 C-1.98 7 -3.96 7 -6 7 C-6.33 7.99 -6.66 8.98 -7 10 C-8.10844919 6.67465243 -7.84454356 4.37817425 -7 1 C-3.535 0.505 -3.535 0.505 0 0 Z " fill="#D6D8D7" transform="translate(178,105)"/>
<path d="M0 0 C6.0546875 -0.1953125 6.0546875 -0.1953125 8 0 C10 2 10 2 10.125 4.625 C10.08375 5.40875 10.0425 6.1925 10 7 C9.34 6.34 8.68 5.68 8 5 C7.67 5.33 7.34 5.66 7 6 C5.33382885 6.04063832 3.66611905 6.042721 2 6 C2 4.68 2 3.36 2 2 C1.34 1.34 0.68 0.68 0 0 Z " fill="#B3B3B3" transform="translate(113,104)"/>
<path d="M0 0 C0.99 0 1.98 0 3 0 C3 3.96 3 7.92 3 12 C2.01 12 1.02 12 0 12 C0 8.04 0 4.08 0 0 Z " fill="#E0E1E0" transform="translate(204,105)"/>
<path d="M0 0 C1.65 0 3.3 0 5 0 C5 0.66 5 1.32 5 2 C7.31 2.33 9.62 2.66 12 3 C12 3.66 12 4.32 12 5 C12.99 5.33 13.98 5.66 15 6 C8.6902455 6.65726609 4.95810778 4.92785162 0 1 C0 0.67 0 0.34 0 0 Z " fill="#513394" transform="translate(279,86)"/>
<path d="M0 0 C2.95768138 2.82908654 3.95484414 4.10318354 4.16796875 8.3359375 C4.17994192 9.68225417 4.18622503 11.0286307 4.1875 12.375 C4.19974609 13.04789063 4.21199219 13.72078125 4.22460938 14.4140625 C4.23554802 18.11861843 4.04027865 20.85490643 2 24 C0.73762269 20.21286807 1.32441127 17.74348067 1.9375 13.8125 C2.22947266 11.90404297 2.22947266 11.90404297 2.52734375 9.95703125 C2.68332031 8.98121094 2.83929688 8.00539063 3 7 C2.34 7 1.68 7 1 7 C0.67 4.69 0.34 2.38 0 0 Z " fill="#808080" transform="translate(126,62)"/>
<path d="M0 0 C0.33 1.32 0.66 2.64 1 4 C0.34 4 -0.32 4 -1 4 C-1.3403125 5.36125 -1.3403125 5.36125 -1.6875 6.75 C-3.18127977 10.44888324 -4.75400577 11.77905658 -8 14 C-8.66 13.67 -9.32 13.34 -10 13 C-8.73046875 11.50260417 -7.4609375 10.00520833 -6.19140625 8.5078125 C-4.9121848 6.99405921 -4.9121848 6.99405921 -4 5 C-3.34 5 -2.68 5 -2 5 C-1.34 3.35 -0.68 1.7 0 0 Z " fill="#513394" transform="translate(254,60)"/>
<path d="M0 0 C2 1 2 1 2.6328125 2.6796875 C4.01479115 8.84375098 4.21206472 14.69696525 4 21 C3.67 21 3.34 21 3 21 C2.67 17.04 2.34 13.08 2 9 C1.34 9 0.68 9 0 9 C0 6.03 0 3.06 0 0 Z " fill="#513394" transform="translate(335,41)"/>
<path d="M0 0 C3.96996957 1.32332319 5.76036395 4.0089399 8.14453125 7.24609375 C9 9 9 9 8 12 C8 11.34 8 10.68 8 10 C6.35 9.67 4.7 9.34 3 9 C2.690625 7.88625 2.38125 6.7725 2.0625 5.625 C1.17673517 2.2054845 1.17673517 2.2054845 0 0 Z " fill="#513394" transform="translate(326,29)"/>
<path d="M0 0 C2.875 -0.1875 2.875 -0.1875 6 0 C8.4294516 3.6441774 8.16179575 5.71241272 8 10 C7.34 10 6.68 10 6 10 C5.34 7.69 4.68 5.38 4 3 C2.68 2.67 1.36 2.34 0 2 C0 1.34 0 0.68 0 0 Z " fill="#E8E9E8" transform="translate(287,104)"/>
<path d="M0 0 C2.97 0 5.94 0 9 0 C9 0.99 9 1.98 9 3 C6.69 3 4.38 3 2 3 C1.67 3.99 1.34 4.98 1 6 C0.67 6 0.34 6 0 6 C0 4.02 0 2.04 0 0 Z " fill="#E7E7E7" transform="translate(125,104)"/>
<path d="M0 0 C0 0.33 0 0.66 0 1 C-4.29 1.66 -8.58 2.32 -13 3 C-13 3.66 -13 4.32 -13 5 C-14.98 5 -16.96 5 -19 5 C-19 4.34 -19 3.68 -19 3 C-6.51480638 -0.44419134 -6.51480638 -0.44419134 0 0 Z " fill="#513394" transform="translate(305,20)"/>
<path d="M0 0 C3.07628086 0 5.14901131 0.00057592 8 1 C10.28629054 3.37136181 11.89402628 5.89360388 13 9 C12.67 9.99 12.34 10.98 12 12 C11.63648438 11.45730469 11.27296875 10.91460937 10.8984375 10.35546875 C7.72949122 5.84581443 5.31368057 3.02425927 0 1 C0 0.67 0 0.34 0 0 Z " fill="#513394" transform="translate(308,36)"/>
<path d="M0 0 C0.33 1.32 0.66 2.64 1 4 C0.01 4.495 0.01 4.495 -1 5 C-1.33 5.66 -1.66 6.32 -2 7 C-2 6.34 -2 5.68 -2 5 C-3.98 5 -5.96 5 -8 5 C-8 4.01 -8 3.02 -8 2 C-6.865625 1.855625 -5.73125 1.71125 -4.5625 1.5625 C-1.19222799 1.38828522 -1.19222799 1.38828522 0 0 Z " fill="#5A5A5A" transform="translate(78,105)"/>
<path d="M0 0 C0.556875 0.495 1.11375 0.99 1.6875 1.5 C4.41109668 3.2666573 5.81451733 3.33531397 9 3 C9.66 2.67 10.32 2.34 11 2 C9.95125002 4.62187494 9.35068687 5.79371361 6.875 7.25 C6.25625 7.4975 5.6375 7.745 5 8 C0 2.25 0 2.25 0 0 Z " fill="#513394" transform="translate(246,43)"/>
<path d="M0 0 C-1.28965176 1.37562854 -2.62689293 2.70766393 -4 4 C-4.66 4 -5.32 4 -6 4 C-6 4.66 -6 5.32 -6 6 C-7.65 6.33 -9.3 6.66 -11 7 C-6.42400881 -0.16905286 -6.42400881 -0.16905286 0 0 Z " fill="#513394" transform="translate(216,23)"/>
<path d="M0 0 C0.33 0.66 0.66 1.32 1 2 C2.32 1.67 3.64 1.34 5 1 C5.33 2.65 5.66 4.3 6 6 C4.68 6.33 3.36 6.66 2 7 C0.5393715 4.35261084 0 3.10551666 0 0 Z " fill="#525252" transform="translate(329,111)"/>
<path d="M0 0 C1.32 0 2.64 0 4 0 C3.34 5.94 2.68 11.88 2 18 C1.67 18 1.34 18 1 18 C1.01740234 16.67935547 1.01740234 16.67935547 1.03515625 15.33203125 C1.04417969 14.17058594 1.05320312 13.00914063 1.0625 11.8125 C1.07410156 10.66394531 1.08570313 9.51539063 1.09765625 8.33203125 C1.01192832 5.40699414 0.67849023 2.83683709 0 0 Z " fill="#513394" transform="translate(321,48)"/>
<path d="M0 0 C1.90845703 0.15275391 1.90845703 0.15275391 3.85546875 0.30859375 C4.83128906 0.39238281 5.80710938 0.47617187 6.8125 0.5625 C6.8125 0.8925 6.8125 1.2225 6.8125 1.5625 C6.00425781 1.62308594 5.19601563 1.68367188 4.36328125 1.74609375 C2.76033203 1.87177734 2.76033203 1.87177734 1.125 2 C0.06925781 2.08121094 -0.98648438 2.16242187 -2.07421875 2.24609375 C-4.83836297 2.52701681 -7.47695741 2.96406852 -10.1875 3.5625 C-10.1875 2.5725 -10.1875 1.5825 -10.1875 0.5625 C-6.51762779 -0.66079074 -3.84782178 -0.31771006 0 0 Z " fill="#513394" transform="translate(228.1875,34.4375)"/>
<path d="M0 0 C1.65 0 3.3 0 5 0 C1.65250472 4.04489013 -2.06899565 5.59114161 -7 7 C-7.66 7 -8.32 7 -9 7 C-9 6.34 -9 5.68 -9 5 C-7.68 5 -6.36 5 -5 5 C-5 4.34 -5 3.68 -5 3 C-3.35 2.67 -1.7 2.34 0 2 C0 1.34 0 0.68 0 0 Z " fill="#513394" transform="translate(319,86)"/>
<path d="M0 0 C-1.28965176 1.37562854 -2.62689293 2.70766393 -4 4 C-4.66 4 -5.32 4 -6 4 C-6.66 5.98 -7.32 7.96 -8 10 C-9.28163292 6.15510125 -8.69835501 4.62830387 -7 1 C-2.81395349 -1.40697674 -2.81395349 -1.40697674 0 0 Z " fill="#513394" transform="translate(218,39)"/>
<path d="M0 0 C5.33087655 -0.43695709 5.33087655 -0.43695709 8 0 C10.02829372 2.40859879 11 3.83044309 11 7 C10.34 7 9.68 7 9 7 C8.401875 6.38125 7.80375 5.7625 7.1875 5.125 C4.87494294 2.878516 3.02800981 2.0093366 0 1 C0 0.67 0 0.34 0 0 Z " fill="#513394" transform="translate(235,36)"/>
<path d="M0 0 C0 2.31 0 4.62 0 7 C-0.66 7 -1.32 7 -2 7 C-2.268125 6.21625 -2.53625 5.4325 -2.8125 4.625 C-3.84814432 1.71885077 -3.84814432 1.71885077 -7 0 C-4.3333581 -1.33332095 -2.83319697 -0.67102033 0 0 Z " fill="#EAEBEB" transform="translate(228,106)"/>
<path d="M0 0 C3.96 0.33 7.92 0.66 12 1 C12 1.66 12 2.32 12 3 C8.10885099 4.01911045 6.39403493 4.16782969 2.625 2.5625 C1.75875 2.046875 0.8925 1.53125 0 1 C0 0.67 0 0.34 0 0 Z " fill="#513394" transform="translate(209,88)"/>
<path d="M0 0 C1.32 0 2.64 0 4 0 C4 1.65 4 3.3 4 5 C2.35 4.67 0.7 4.34 -1 4 C-1 1 -1 1 0 0 Z " fill="#707070" transform="translate(229,113)"/>
<path d="M0 0 C0.33 0 0.66 0 1 0 C1 3.96 1 7.92 1 12 C-2 9 -2 9 -2.109375 6.9921875 C-1.11111111 1.11111111 -1.11111111 1.11111111 0 0 Z " fill="#555656" transform="translate(124,105)"/>
<path d="M0 0 C0.33 0.66 0.66 1.32 1 2 C0.0625 4.125 0.0625 4.125 -1 6 C-1.66 6 -2.32 6 -3 6 C-3.144375 6.61875 -3.28875 7.2375 -3.4375 7.875 C-4 10 -4 10 -5 12 C-5.66 12 -6.32 12 -7 12 C-5.44298069 7.32894208 -2.91552627 3.91294315 0 0 Z " fill="#513394" transform="translate(266,43)"/>
<path d="M0 0 C0.99 1.485 0.99 1.485 2 3 C5.56769552 3.73606499 5.56769552 3.73606499 9 4 C9 4.66 9 5.32 9 6 C6.03 6 3.06 6 0 6 C0 4.02 0 2.04 0 0 Z " fill="#EDEDED" transform="translate(68,111)"/>
<path d="M0 0 C0.33 0 0.66 0 1 0 C1 3.63 1 7.26 1 11 C0.34 11 -0.32 11 -1 11 C-2.0257259 6.58937864 -2.03684712 4.07369424 0 0 Z " fill="#414242" transform="translate(307,106)"/>
<path d="M0 0 C0.99 0 1.98 0 3 0 C3 3.3 3 6.6 3 10 C0 7 0 7 -0.1875 3.3125 C-0.125625 2.219375 -0.06375 1.12625 0 0 Z " fill="#E2E3E3" transform="translate(209,105)"/>
<path d="M0 0 C0.99 0.33 1.98 0.66 3 1 C2.67 1.99 2.34 2.98 2 4 C1.34 4 0.68 4 0 4 C-0.66 5.98 -1.32 7.96 -2 10 C-2.66 9.67 -3.32 9.34 -4 9 C-3.34 6.69 -2.68 4.38 -2 2 C-1.34 2 -0.68 2 0 2 C0 1.34 0 0.68 0 0 Z " fill="#513394" transform="translate(272,56)"/>
<path d="M0 0 C0.598125 0.350625 1.19625 0.70125 1.8125 1.0625 C1.8125 2.3825 1.8125 3.7025 1.8125 5.0625 C1.1525 4.7325 0.4925 4.4025 -0.1875 4.0625 C0.1425 3.4025 0.4725 2.7425 0.8125 2.0625 C-1.1675 2.3925 -3.1475 2.7225 -5.1875 3.0625 C-5.1875 2.0725 -5.1875 1.0825 -5.1875 0.0625 C-2.1875 -0.9375 -2.1875 -0.9375 0 0 Z " fill="#989898" transform="translate(87.1875,110.9375)"/>
<path d="M0 0 C0.99 0 1.98 0 3 0 C2.52797514 4.24822374 0.03344482 6.19989709 -3 9 C-3.66 8.67 -4.32 8.34 -5 8 C-3.625 6 -3.625 6 -2 4 C-1.34 4 -0.68 4 0 4 C0 2.68 0 1.36 0 0 Z " fill="#513394" transform="translate(329,77)"/>
<path d="M0 0 C0 3.60573896 -0.81707462 4.41336566 -3 7.1875 C-3.556875 7.90292969 -4.11375 8.61835937 -4.6875 9.35546875 C-5.120625 9.89816406 -5.55375 10.44085938 -6 11 C-6 7.06845568 -4.74672985 4.4934597 -3 1 C-2.01 0.67 -1.02 0.34 0 0 Z " fill="#513394" transform="translate(282,45)"/>
<path d="M0 0 C1.32 0 2.64 0 4 0 C2.60667426 3.36720387 1.0210714 4.9859524 -2 7 C-2.33 5.68 -2.66 4.36 -3 3 C-2.01 2.67 -1.02 2.34 0 2 C0 1.34 0 0.68 0 0 Z " fill="#513394" transform="translate(285,38)"/>
<path d="M0 0 C0.33 1.32 0.66 2.64 1 4 C0.01 4 -0.98 4 -2 4 C-2.66 5.98 -3.32 7.96 -4 10 C-4.66 10 -5.32 10 -6 10 C-5.38722388 7.03824877 -4.74627478 5.61941217 -3 3 C-2.34 3 -1.68 3 -1 3 C-0.67 2.01 -0.34 1.02 0 0 Z " fill="#513394" transform="translate(204,30)"/>
<path d="M0 0 C2.64 0 5.28 0 8 0 C7.67 1.32 7.34 2.64 7 4 C6.67 3.34 6.34 2.68 6 2 C4.35 2 2.7 2 1 2 C0.67 2.66 0.34 3.32 0 4 C0 2.68 0 1.36 0 0 Z " fill="#F3F3F3" transform="translate(181,105)"/>
<path d="M0 0 C0.99 0 1.98 0 3 0 C2.67 1.65 2.34 3.3 2 5 C-0.97 4.505 -0.97 4.505 -4 4 C-2.68 3.67 -1.36 3.34 0 3 C0 2.01 0 1.02 0 0 Z " fill="#CACCCB" transform="translate(280,111)"/>
<path d="M0 0 C0.33 0.66 0.66 1.32 1 2 C2.65 2 4.3 2 6 2 C5.67 2.66 5.34 3.32 5 4 C4.01 4.33 3.02 4.66 2 5 C1.34 5.99 0.68 6.98 0 8 C0 5.36 0 2.72 0 0 Z " fill="#F0F0F0" transform="translate(56,108)"/>
<path d="M0 0 C0.66 0.33 1.32 0.66 2 1 C1.67 2.98 1.34 4.96 1 7 C0.34 7 -0.32 7 -1 7 C-1 6.34 -1 5.68 -1 5 C-2.32 4.67 -3.64 4.34 -5 4 C-3.35 4 -1.7 4 0 4 C0 2.68 0 1.36 0 0 Z " fill="#F3F4F5" transform="translate(256,106)"/>
<path d="M0 0 C-2.39509338 2.89932357 -4.31245243 3.50168276 -8 4 C-8 3.34 -8 2.68 -8 2 C-3.61016949 -1.20338983 -3.61016949 -1.20338983 0 0 Z " fill="#513394" transform="translate(286,26)"/>
</svg>
