<svg xmlns="http://www.w3.org/2000/svg" xmlns:xlink="http://www.w3.org/1999/xlink" width="500" zoomAndPan="magnify" viewBox="0 0 375 374.999991" height="500" preserveAspectRatio="xMidYMid meet" version="1.0"><defs><g/><clipPath id="77b42e5d51"><path d="M 31.328125 37.5 L 340.703125 37.5 L 340.703125 337.5 L 31.328125 337.5 Z M 31.328125 37.5 " clip-rule="nonzero"/></clipPath><clipPath id="b559dfccf3"><path d="M 48.578125 37.5 L 323.410156 37.5 C 327.984375 37.5 332.375 39.316406 335.609375 42.550781 C 338.84375 45.789062 340.660156 50.175781 340.660156 54.75 L 340.660156 320.25 C 340.660156 324.824219 338.84375 329.210938 335.609375 332.449219 C 332.375 335.683594 327.984375 337.5 323.410156 337.5 L 48.578125 337.5 C 44.003906 337.5 39.617188 335.683594 36.382812 332.449219 C 33.148438 329.210938 31.328125 324.824219 31.328125 320.25 L 31.328125 54.75 C 31.328125 50.175781 33.148438 45.789062 36.382812 42.550781 C 39.617188 39.316406 44.003906 37.5 48.578125 37.5 Z M 48.578125 37.5 " clip-rule="nonzero"/></clipPath><clipPath id="25fe9cecda"><path d="M 0.328125 0.5 L 309.703125 0.5 L 309.703125 300.5 L 0.328125 300.5 Z M 0.328125 0.5 " clip-rule="nonzero"/></clipPath><clipPath id="fe4aba37c2"><path d="M 17.578125 0.5 L 292.410156 0.5 C 296.984375 0.5 301.375 2.316406 304.609375 5.550781 C 307.84375 8.789062 309.660156 13.175781 309.660156 17.75 L 309.660156 283.25 C 309.660156 287.824219 307.84375 292.210938 304.609375 295.449219 C 301.375 298.683594 296.984375 300.5 292.410156 300.5 L 17.578125 300.5 C 13.003906 300.5 8.617188 298.683594 5.382812 295.449219 C 2.148438 292.210938 0.328125 287.824219 0.328125 283.25 L 0.328125 17.75 C 0.328125 13.175781 2.148438 8.789062 5.382812 5.550781 C 8.617188 2.316406 13.003906 0.5 17.578125 0.5 Z M 17.578125 0.5 " clip-rule="nonzero"/></clipPath><clipPath id="055010e118"><rect x="0" width="310" y="0" height="301"/></clipPath></defs><g clip-path="url(#77b42e5d51)"><g clip-path="url(#b559dfccf3)"><g transform="matrix(1, 0, 0, 1, 31, 37)"><g clip-path="url(#055010e118)"><g clip-path="url(#25fe9cecda)"><g clip-path="url(#fe4aba37c2)"><path fill="#c474fb" d="M 0.328125 0.5 L 309.703125 0.5 L 309.703125 300.5 L 0.328125 300.5 Z M 0.328125 0.5 " fill-opacity="1" fill-rule="nonzero"/></g></g></g></g></g></g><g fill="#000000" fill-opacity="1"><g transform="translate(75.591268, 306.364223)"><g><path d="M 24.90625 0 L 24.90625 -238.953125 L 130.59375 -238.953125 C 141.582031 -238.953125 151.734375 -236.707031 161.046875 -232.21875 C 170.359375 -227.738281 178.4375 -221.679688 185.28125 -214.046875 C 192.125 -206.421875 197.394531 -197.894531 201.09375 -188.46875 C 204.800781 -179.050781 206.65625 -169.40625 206.65625 -159.53125 C 206.65625 -149.4375 204.914062 -139.734375 201.4375 -130.421875 C 197.957031 -121.109375 192.960938 -112.972656 186.453125 -106.015625 C 179.941406 -99.054688 172.3125 -93.671875 163.5625 -89.859375 L 218.09375 0 L 166.9375 0 L 117.796875 -80.109375 L 71.34375 -80.109375 L 71.34375 0 Z M 71.34375 -120.828125 L 129.578125 -120.828125 C 135.410156 -120.828125 140.570312 -122.566406 145.0625 -126.046875 C 149.550781 -129.523438 153.140625 -134.179688 155.828125 -140.015625 C 158.515625 -145.847656 159.859375 -152.351562 159.859375 -159.53125 C 159.859375 -167.15625 158.285156 -173.828125 155.140625 -179.546875 C 152.003906 -185.273438 148.023438 -189.820312 143.203125 -193.1875 C 138.378906 -196.550781 133.164062 -198.234375 127.5625 -198.234375 L 71.34375 -198.234375 Z M 71.34375 -120.828125 "/></g></g></g></svg>