<svg width="262" height="44" viewBox="0 0 262 44" fill="none" xmlns="http://www.w3.org/2000/svg">
<path d="M28.2855 43.3695C22.4415 43.3695 19.5825 39.312 19.002 38.4735C17.277 40.1625 14.673 43.3695 9.9825 43.3695C4.566 43.3695 0 39.297 0 32.694V10.6755C0 4.0575 4.5735 0 9.9825 0C15.3915 0 19.965 4.3095 19.965 10.575C21.021 10.2015 22.1415 10.008 23.2935 10.008C28.866 10.008 33.276 14.553 33.276 20.016C33.276 21.5475 32.985 22.9095 32.349 24.2145C35.883 25.7895 38.268 29.334 38.268 33.3615C38.268 38.88 33.789 43.3695 28.2855 43.3695ZM21.4155 36.054C22.851 38.5545 25.2675 40.0335 28.2855 40.0335C31.9545 40.0335 34.941 37.0395 34.941 33.3615C34.941 30.4515 33.075 27.9195 30.39 27.0285L21.4155 36.0555V36.054ZM9.984 3.336C6.672 3.336 3.3285 5.6055 3.3285 10.6755V32.694C3.3285 37.764 6.6705 40.0335 9.984 40.0335C12.6135 40.0335 14.067 38.703 16.4115 36.3525L17.4495 35.3115C16.914 33.711 16.638 31.935 16.638 30.024V10.674C16.638 5.604 13.296 3.3345 9.9825 3.3345L9.984 3.336ZM19.9665 14.235V30.0255C19.9665 30.9195 20.0415 31.77 20.184 32.571L27.417 25.32C29.5185 23.214 29.949 21.6765 29.949 20.0175C29.949 16.473 27.108 13.3455 23.2935 13.3455C22.107 13.3455 20.9715 13.6515 19.9665 14.2365V14.235ZM53.5755 10.008H57.759V24.5805C61.0005 23.1855 63.2325 20.745 64.662 16.98H68.9505C67.7655 20.571 66.0915 23.3595 63.861 25.3815L70.659 34.4115H65.709L60.6195 27.6135C59.7135 28.032 58.7715 28.38 57.7605 28.659V34.4115H53.577V10.008H53.5755ZM72.1215 29.496V10.008H76.0965V29.2875C76.0965 30.9255 76.5495 31.4145 77.4555 31.4145C77.979 31.4145 78.4665 31.3095 79.0935 31.0305V34.413C78.3615 34.692 77.5245 34.9005 76.548 34.9005C73.863 34.9005 72.12 33.5055 72.12 29.4975L72.1215 29.496ZM80.436 25.6965C80.436 20.154 83.922 16.4925 89.43 16.4925C95.565 16.4925 98.739 21.0945 97.065 26.8125H84.654C85.0035 29.706 86.607 31.4145 89.3955 31.4145C91.2435 31.4145 92.9865 30.543 93.963 29.427L96.996 31.5885C95.253 33.471 92.742 34.9005 89.3265 34.9005C83.8875 34.9005 80.436 31.2405 80.436 25.6965ZM93.3 23.988C93.5445 21.4785 92.115 19.839 89.361 19.839C86.607 19.839 85.143 21.303 84.7245 23.988H93.3ZM102.51 9.381C103.939 9.381 105.055 10.497 105.055 11.9265C105.055 13.356 103.939 14.472 102.51 14.472C101.08 14.472 99.9645 13.356 99.9645 11.9265C99.9645 10.497 101.08 9.381 102.51 9.381ZM100.488 16.9815H104.463V34.413H100.488V16.9815ZM108.321 16.9815H112.296V20.1885C113.446 17.8875 115.573 16.4925 118.222 16.4925C123.835 16.4925 123.835 22.035 123.835 24.651V34.413H119.86V24.756C119.86 22.7685 119.86 19.9455 116.793 19.9455C114.144 19.9455 112.296 22.3155 112.296 25.872V34.413H108.321V16.9815ZM143.542 31.4145C143.821 31.4145 144.169 31.38 144.483 31.2405V34.518C143.856 34.797 143.298 34.902 142.6 34.902C140.508 34.902 139.323 33.228 139.323 30.8925V30.3345C138.172 33.228 135.802 34.902 132.559 34.902C128.863 34.902 126.562 32.7405 126.562 29.7075C126.562 26.187 129.63 24.06 134.545 24.06C135.904 24.06 137.299 24.234 138.52 24.513C138.52 21.933 137.335 19.9455 134.685 19.9455C132.802 19.9455 131.407 20.8515 131.199 22.734H127.189C127.329 18.9345 130.362 16.494 134.754 16.494C140.193 16.494 142.494 19.806 142.494 24.513V30.2655C142.494 31.1025 142.947 31.416 143.539 31.416L143.542 31.4145ZM133.362 31.728C135.907 31.728 137.998 30.09 138.661 27.5445C137.511 27.1605 136.116 26.952 134.862 26.952C132.003 26.952 130.608 27.9975 130.608 29.601C130.608 30.996 131.653 31.728 133.362 31.728ZM146.905 16.9815H150.88V20.1885C152.031 17.8875 154.158 16.4925 156.807 16.4925C162.42 16.4925 162.42 22.035 162.42 24.651V34.413H158.445V24.756C158.445 22.7685 158.445 19.9455 155.377 19.9455C152.728 19.9455 150.88 22.3155 150.88 25.872V34.413H146.905V16.9815ZM164.932 31.2405L174.102 20.2935H165.561V16.9815H179.262V19.527L169.5 31.2405H179.61V34.413H164.932V31.2405ZM181.038 25.698C181.038 20.1555 184.524 16.494 190.032 16.494C196.167 16.494 199.341 21.096 197.667 26.814H185.256C185.605 29.7075 187.209 31.416 189.997 31.416C191.845 31.416 193.588 30.5445 194.565 29.4285L197.598 31.59C195.855 33.4725 193.344 34.902 189.928 34.902C184.489 34.902 181.038 31.242 181.038 25.698ZM193.902 23.9895C194.146 21.48 192.717 19.8405 189.963 19.8405C187.209 19.8405 185.745 21.3045 185.326 23.9895H193.902ZM203.112 9.3825C204.541 9.3825 205.657 10.4985 205.657 11.928C205.657 13.3575 204.541 14.4735 203.112 14.4735C201.682 14.4735 200.566 13.3575 200.566 11.928C200.566 10.4985 201.682 9.3825 203.112 9.3825ZM201.09 16.983H205.065V34.4145H201.09V16.983ZM207.606 35.844H211.755C212.068 37.308 213.637 38.3895 216.183 38.3895C218.518 38.3895 219.982 37.4475 219.982 35.9835C219.982 32.7405 210.673 34.659 210.673 31.1025C210.673 29.9175 211.719 29.325 213.183 28.872C209.871 28.3485 207.744 26.1525 207.744 22.98C207.744 19.1445 210.916 16.53 215.658 16.53C218.098 16.53 220.086 17.2275 221.479 18.378C221.827 17.4015 221.724 15.9375 221.479 14.8215H224.721C225.069 16.8435 224.407 19.0755 222.978 20.295C223.362 21.0615 223.57 21.969 223.57 22.9095C223.57 29.778 215.064 28.836 215.064 30.1605C215.064 31.8345 224.128 30.0555 224.128 36.018C224.128 39.504 220.851 41.8755 216.214 41.8755C211.228 41.8755 208.266 39.087 207.603 35.844H207.606ZM215.659 26.1165C217.926 26.1165 219.424 24.897 219.424 23.049C219.424 21.201 217.96 19.9815 215.659 19.9815C213.358 19.9815 211.894 21.201 211.894 23.049C211.894 24.897 213.393 26.1165 215.659 26.1165ZM226.09 25.698C226.09 20.1555 229.576 16.494 235.084 16.494C241.219 16.494 244.393 21.096 242.719 26.814H230.308C230.658 29.7075 232.261 31.416 235.05 31.416C236.898 31.416 238.641 30.5445 239.617 29.4285L242.65 31.59C240.907 33.4725 238.396 34.902 234.981 34.902C229.542 34.902 226.09 31.242 226.09 25.698ZM238.954 23.9895C239.199 21.48 237.769 19.8405 235.015 19.8405C232.261 19.8405 230.797 21.3045 230.379 23.9895H238.954ZM246.084 16.9815H250.059V20.1885C251.209 17.8875 253.336 16.4925 255.985 16.4925C261.598 16.4925 261.598 22.035 261.598 24.651V34.413H257.623V24.756C257.623 22.7685 257.623 19.9455 254.556 19.9455C251.907 19.9455 250.059 22.3155 250.059 25.872V34.413H246.084V16.9815Z" fill="#3A3A5F"/>
</svg>
