<svg width="218" height="40" viewBox="0 0 218 40" fill="none" xmlns="http://www.w3.org/2000/svg">
<path fill-rule="evenodd" clip-rule="evenodd" d="M7.5259e-06 20C3.36972e-06 8.955 8.97363 0 20.0442 0C31.1147 0 40.0883 8.955 40.0883 20C40.0883 31.045 31.1148 40 20.0442 40C8.97364 40 1.16821e-05 31.045 7.5259e-06 20ZM26.7947 20.5951C28.3065 19.1247 28.3065 16.74 26.7947 15.2693L18.6338 7.33203C17.1218 8.80233 17.1218 11.1868 18.6338 12.6573L24.0573 17.932L15.895 25.8695C17.4071 27.3416 19.8593 27.3416 21.3716 25.8695L26.7947 20.5951ZM12.4277 32.132H23.882C26.0044 32.132 27.7246 30.4441 27.7246 28.3624H16.2705C14.1478 28.3624 12.4277 30.0508 12.4277 32.132Z" fill="#3A3A5F"/>
<path fill-rule="evenodd" clip-rule="evenodd" d="M51.3575 9.9668L51.3575 12.5652L52.944 12.6548L51.9861 26.1844C51.8963 26.931 51.7466 27.1401 51.1779 27.2297L50.25 27.3193L50.25 29.8281H57.3739L57.3739 27.2297L55.8773 27.1401L56.476 16.3881H56.5358L60.7563 27.7076H63.8993L68.2395 16.2388H68.3293L68.8382 26.2142C68.8681 26.9609 68.7483 27.1401 68.1796 27.2297L67.2517 27.3193L67.2517 29.8281H74.4056L74.4056 27.2297L72.8791 27.1401L71.9511 13.5508C71.8613 12.9236 72.1606 12.6548 72.7294 12.5652L73.6274 12.4756L73.6274 9.9668L67.0123 9.9668L62.4326 22.6004H62.3428L57.9427 9.9668H51.3575ZM89.7012 15.3727C87.4263 14.5065 85.2412 14.2975 84.1936 14.2975C78.7758 14.2975 76.1417 17.6724 76.1417 22.9289C76.1417 26.9908 77.6982 30.2164 82.1282 30.2164C84.0439 30.2164 85.3909 29.41 86.1093 28.3049L86.229 28.3348L86.3487 29.8281H91.1978L91.1978 27.4388L90.3597 27.3791C89.8508 27.3492 89.7012 27.1401 89.7012 26.5428L89.7012 15.3727ZM85.5705 24.8702C85.5705 26.0649 84.7024 27.17 83.0561 27.17C80.901 27.17 80.3622 25.0196 80.3622 22.7198C80.3622 19.8825 81.1105 17.3737 83.7146 17.3737C84.463 17.3737 85.1813 17.5231 85.5705 17.6724L85.5705 24.8702ZM100.836 17.6425C101.165 17.6425 101.405 17.6724 101.584 17.7321C101.794 17.8217 101.854 17.9711 101.854 18.4489L101.854 20.4201L105.236 20.1812L105.236 14.8052C104.428 14.4468 103.35 14.2975 102.482 14.2975C99.998 14.2975 98.7109 15.7908 98.232 16.9855H98.1721L98.1721 14.6857H92.6944L92.6944 17.1945L93.7121 17.2841C94.221 17.314 94.4006 17.5231 94.4006 18.1204L94.4006 26.3934C94.4006 27.0804 94.3108 27.2894 93.6822 27.379L92.7244 27.4686L92.7244 29.8281H101.016L101.016 27.3491L98.5313 27.2297L98.5313 20.4201C98.5313 18.8372 99.3994 17.6425 100.836 17.6425ZM112.48 23.5263C113.108 23.4367 113.677 23.3471 114.276 23.1081L117.149 29.8281H122.178L122.178 27.3492L120.562 27.2596L117.838 21.4057C119.275 20.2409 120.083 18.7476 120.292 17.314L121.639 17.1348L121.639 14.6857H115.024L115.024 17.1049L115.802 17.1945C116.192 17.2841 116.431 17.3737 116.431 17.762C116.431 19.1359 114.306 20.4201 112.48 20.6591L112.48 8.5332H106.613L106.613 11.042L107.631 11.1316C108.2 11.1615 108.319 11.3705 108.319 11.9977L108.319 26.4532C108.319 27.1401 108.14 27.2894 107.631 27.379L106.673 27.4686L106.673 29.8281H113.827L113.827 27.3491L112.48 27.2596L112.48 23.5263ZM122.777 17.5827H124.812L124.812 24.9001C124.812 27.4388 125.052 30.2462 129.721 30.2462C131.278 30.2462 132.714 29.858 133.552 29.2905L132.864 26.4532C132.385 26.722 131.667 26.9609 130.859 26.9609C129.661 26.9609 129.033 26.483 129.033 24.7209L129.033 17.5829L132.595 17.5829L132.744 14.6858H129.033L129.033 11.2511H126.728C126.099 13.0431 125.291 14.6261 123.136 15.0143L122.777 17.5827ZM136.426 32.5758C136.426 33.3225 136.276 33.442 135.708 33.5316L134.78 33.651L134.78 36.0106H143.161L143.161 33.5315L140.587 33.3822L140.587 29.4996C141.395 29.9476 142.502 30.2462 143.58 30.2462C147.8 30.2462 149.985 27.0206 149.985 21.794C149.985 16.9855 148.1 14.2975 144.598 14.2975C142.921 14.2975 141.245 14.8948 140.317 16.5375H140.257L140.257 14.6857L134.72 14.6857L134.72 17.1945L135.708 17.2543C136.187 17.2841 136.426 17.5529 136.426 18.1204L136.426 32.5758ZM140.617 19.7929C140.617 18.8372 141.395 17.4633 143.131 17.4633C145.316 17.4633 145.765 19.8527 145.765 22.3017C145.765 25.0196 145.076 27.1401 142.832 27.1401C142.083 27.1401 141.215 26.8713 140.617 26.4233L140.617 19.7929ZM157.439 8.5332H151.572L151.572 11.042L152.56 11.1316C153.128 11.1615 153.278 11.3705 153.278 11.9977L153.278 26.3934C153.278 27.1401 153.158 27.2596 152.59 27.3492L151.632 27.4686L151.632 29.8281H158.995L158.995 27.3491L157.439 27.2596L157.439 8.5332ZM174.111 15.3727C171.836 14.5065 169.651 14.2975 168.604 14.2975C163.186 14.2975 160.552 17.6724 160.552 22.9289C160.552 26.9908 162.108 30.2164 166.538 30.2164C168.454 30.2164 169.801 29.41 170.519 28.3049L170.639 28.3348L170.759 29.8281H175.608L175.608 27.4388L174.77 27.3791C174.261 27.3492 174.111 27.1401 174.111 26.5428L174.111 15.3727ZM169.98 24.8702C169.98 26.0649 169.112 27.17 167.466 27.17C165.311 27.17 164.772 25.0196 164.772 22.7198C164.772 19.8825 165.52 17.3737 168.125 17.3737C168.873 17.3737 169.591 17.5231 169.98 17.6724L169.98 24.8702ZM190.873 15.3727C188.599 14.5065 186.413 14.2975 185.366 14.2975C179.948 14.2975 177.314 17.6724 177.314 22.9289C177.314 26.9908 178.87 30.2164 183.3 30.2164C185.216 30.2164 186.563 29.41 187.281 28.3049L187.401 28.3348L187.521 29.8281H192.37L192.37 27.4388L191.532 27.3791C191.023 27.3492 190.873 27.1401 190.873 26.5428L190.873 15.3727ZM186.743 24.8702C186.743 26.0649 185.875 27.17 184.228 27.17C182.073 27.17 181.534 25.0196 181.534 22.7198C181.534 19.8825 182.283 17.3737 184.887 17.3737C185.635 17.3737 186.354 17.5231 186.743 17.6724L186.743 24.8702ZM193.418 17.5827H195.453L195.453 24.9001C195.453 27.4388 195.693 30.2462 200.362 30.2462C201.919 30.2462 203.355 29.858 204.193 29.2905L203.505 26.4532C203.026 26.722 202.308 26.9609 201.5 26.9609C200.302 26.9609 199.674 26.483 199.674 24.7209L199.674 17.5829H203.236L203.385 14.6858L199.674 14.6858L199.674 11.2511L197.369 11.2511C196.74 13.0431 195.932 14.6261 193.777 15.0143L193.418 17.5827ZM213.652 17.314C214.011 17.4335 214.071 17.6425 214.071 18.1204L214.071 19.3449L217.035 19.106L217.035 15.3727C215.717 14.6559 213.922 14.2975 212.275 14.2975C208.683 14.2975 206.019 15.9999 206.019 19.1956C206.019 22.4212 208.294 23.1081 210.449 23.6756C212.126 24.0639 213.293 24.3625 213.293 25.6468C213.293 26.931 212.365 27.379 210.958 27.379C210.36 27.379 209.731 27.2595 209.342 27.1102C208.983 26.9907 208.893 26.8116 208.893 26.3636L208.893 25.0196L205.9 25.2585L205.9 29.2308C207.067 29.858 209.372 30.2462 211.198 30.2462C215.059 30.2462 217.513 28.4244 217.513 25.1987C217.513 22.0927 215.149 21.4058 212.964 20.7487C211.377 20.2708 210.09 20.0319 210.09 18.6879C210.09 17.6425 210.988 17.1348 212.185 17.1348C212.664 17.1348 213.203 17.1647 213.652 17.314Z" fill="#3A3A5F"/>
</svg>
