<svg width="143" height="77" viewBox="0 0 143 77" fill="none" xmlns="http://www.w3.org/2000/svg">
<path fill-rule="evenodd" clip-rule="evenodd" d="M50.1549 28.8786C54.0345 33.4276 56.1463 39.1394 56.1463 45.1964C56.1463 58.3001 46.0971 69.1015 33.3015 70.299C29.4218 65.7501 27.3113 60.0383 27.3113 53.9813C27.3113 40.8763 37.358 30.075 50.1549 28.8786ZM52.524 23.0518C35.4429 23.0518 21.5957 36.899 21.5957 53.98C21.5908 58.1082 22.4146 62.1953 24.0184 65.9992C25.6222 69.8031 27.9733 73.2463 30.9324 76.1247C48.0134 76.1247 61.8606 62.2775 61.8606 45.1964C61.8606 36.5155 58.2853 28.6696 52.524 23.0518Z" fill="#3A3A5F"/>
<path fill-rule="evenodd" clip-rule="evenodd" d="M80.3782 37.6674L76.522 33.2756H75.6053V37.6674H72.4531V24.873H78.9283C81.697 24.873 83.5304 26.5531 83.5304 29.0545C83.5304 31.1552 82.2314 32.6633 80.1691 33.1222L84.1799 37.6674H80.3782ZM78.5831 30.6405C79.7101 30.6405 80.4363 30.0282 80.4363 29.0941C80.4363 28.1774 79.7101 27.5663 78.5831 27.5663H75.6053V30.6393L78.5831 30.6405ZM95.2621 32.8736C95.2621 35.9107 92.8547 37.9334 90.0105 37.9334C87.1082 37.9334 84.702 35.9107 84.702 32.8736C84.702 29.8574 87.1082 27.8335 90.0093 27.8335C92.8547 27.8335 95.2621 29.8574 95.2621 32.8736ZM92.3202 32.8736C92.3202 31.3853 91.1944 30.3919 90.0105 30.3919C88.7684 30.3919 87.6426 31.3853 87.6426 32.8736C87.6426 34.3829 88.7684 35.3565 90.0105 35.3565C91.1944 35.3565 92.3202 34.3829 92.3202 32.8736ZM101.105 40.9137H97.8019L99.3484 37.3433L95.3759 28.0611H98.6617L100.933 33.6579L103.359 28.0611H106.642L101.105 40.9137ZM117.502 37.6674H114.446V36.9041C113.702 37.5722 112.709 37.9532 111.469 37.9532C108.929 37.9532 106.788 35.9107 106.788 32.8748C106.788 29.8562 108.929 27.7951 111.469 27.7951C112.709 27.7951 113.702 28.1774 114.448 28.8455V28.0809H117.503L117.502 37.6674ZM114.446 32.8748C114.446 31.4026 113.339 30.3919 112.098 30.3919C110.762 30.3919 109.789 31.4038 109.789 32.8748C109.789 34.3643 110.762 35.3565 112.098 35.3565C113.339 35.3565 114.446 34.3643 114.446 32.8748ZM119.74 37.6674H122.796V23.918H119.74V37.6674ZM75.6053 48.6779H81.6017V51.4268H75.6053V56.0104H72.4544V43.216H82.3452V45.9847H75.6053V48.6779ZM83.7506 56.0116H86.8063V42.2621H83.7506V56.0116ZM99.0106 51.2177C99.0106 54.2537 96.6032 56.2776 93.759 56.2776C90.8567 56.2776 88.4505 54.2537 88.4505 51.2177C88.4505 48.2004 90.8567 46.1752 93.7578 46.1752C96.6032 46.1752 99.0106 48.2004 99.0106 51.2177ZM96.0687 51.2177C96.0687 49.7282 94.9429 48.7348 93.759 48.7348C92.5169 48.7348 91.3911 49.7282 91.3911 51.2177C91.3911 52.727 92.5169 53.6994 93.759 53.6994C94.9417 53.6994 96.0687 52.7258 96.0687 51.2177ZM107.708 46.367L107.574 49.4227H107.02C104.883 49.4227 103.717 50.5299 103.717 53.0128V56.0092H100.663V46.4239H103.719V48.2573C104.406 47.1117 105.456 46.2902 107.022 46.2902C107.29 46.2902 107.479 46.31 107.708 46.367ZM119.181 56.0104H116.125V55.2458C115.38 55.9151 114.388 56.2974 113.146 56.2974C110.607 56.2974 108.467 54.2537 108.467 51.2177C108.467 48.1991 110.607 46.1368 113.146 46.1368C114.388 46.1368 115.38 46.5204 116.125 47.1884V46.4239H119.181V56.0104ZM116.125 51.2177C116.125 49.7456 115.018 48.7348 113.777 48.7348C112.44 48.7348 111.467 49.7468 111.467 51.2177C111.467 52.7073 112.44 53.6994 113.777 53.6994C115.018 53.6994 116.125 52.7073 116.125 51.2177ZM84.1217 74.3533H80.9906V69.2935H75.6041V74.3533H72.4544V61.5589H75.6041V66.5433H80.9906V61.5589H84.1217V74.3533ZM96.3582 69.5607C96.3582 72.5966 93.952 74.6206 91.1066 74.6206C88.2043 74.6206 85.7981 72.5966 85.7981 69.5607C85.7981 66.5433 88.2043 64.5194 91.1066 64.5194C93.952 64.5194 96.3582 66.5433 96.3582 69.5607ZM93.4176 69.5607C93.4176 68.0712 92.2905 67.0778 91.1066 67.0778C89.8657 67.0778 88.7387 68.0712 88.7387 69.5607C88.7387 71.07 89.8657 72.0424 91.1066 72.0424C92.2905 72.0424 93.4176 71.0688 93.4176 69.5607ZM98.0345 74.3533H101.089V60.6039H98.0345V74.3533ZM103.294 74.3533H106.349V60.6039H103.294V74.3533ZM118.738 74.3521H115.682V73.59C114.937 74.2581 113.945 74.6403 112.703 74.6403C110.163 74.6403 108.026 72.5966 108.026 69.5607C108.026 66.5421 110.163 64.481 112.703 64.481C113.945 64.481 114.937 64.8633 115.682 65.5314V64.7668H118.738V74.3521ZM115.682 69.5607C115.682 68.0885 114.575 67.0778 113.334 67.0778C111.998 67.0778 111.023 68.0897 111.023 69.5607C111.023 71.0502 111.997 72.0424 113.334 72.0424C114.575 72.0424 115.682 71.0502 115.682 69.5607ZM130.697 68.472V74.3521H127.661V69.119C127.661 67.9932 126.993 67.2299 126.02 67.2299C124.816 67.2299 124.034 68.0501 124.034 69.9021V74.3521H120.978V64.7656H124.034V65.681C124.758 64.919 125.771 64.4798 126.974 64.4798C129.208 64.4798 130.697 66.0646 130.697 68.472ZM143.003 74.3521H139.947V73.59C139.203 74.2581 138.21 74.6403 136.968 74.6403C134.428 74.6403 132.291 72.5966 132.291 69.5607C132.291 66.5421 134.428 64.481 136.968 64.481C138.21 64.481 139.203 64.8633 139.947 65.5314V60.6039H143.003V74.3521ZM139.947 69.5607C139.947 68.0885 138.84 67.0778 137.599 67.0778C136.263 67.0778 135.288 68.0897 135.288 69.5607C135.288 71.0502 136.262 72.0424 137.599 72.0424C138.84 72.0424 139.947 71.0502 139.947 69.5607Z" fill="#3A3A5F"/>
<path fill-rule="evenodd" clip-rule="evenodd" d="M28.5901 14.2678H33.2652V0H28.5901V14.2678ZM20.1368 16.1198L16.8572 4.68007L21.3529 3.39098L24.6313 14.8307L20.1368 16.1198ZM12.4901 20.2518L7.43023 12.1548L11.3965 9.67684L16.4551 17.7739L12.4901 20.2518ZM41.7594 16.1198L37.2661 14.8307L40.5458 3.39098L45.0403 4.68007L41.7594 16.1198ZM49.4073 20.2518L45.4423 17.7739L50.5022 9.67684L54.4672 12.1548L49.4073 20.2518ZM9.33665 23.0527C6.3774 25.931 4.02618 29.3742 2.42238 33.1781C0.818575 36.982 -0.00515392 41.0692 2.42626e-05 45.1974C2.42626e-05 62.2772 13.8472 76.1232 30.9283 76.1232C33.8878 73.245 36.2392 69.8019 37.843 65.9979C39.4468 62.194 40.2704 58.1067 40.2649 53.9785C40.2649 36.8974 26.4177 23.0502 9.33665 23.0502M11.7045 28.8771C24.5014 30.0734 34.5494 40.8748 34.5494 53.9785C34.5494 60.0367 32.4388 65.7473 28.5604 70.2975C15.7636 69.1 5.71557 58.2986 5.71557 45.1961C5.71557 39.1379 7.82612 33.4273 11.7045 28.8771Z" fill="#3A3A5F"/>
</svg>
