<svg width="263" height="64" viewBox="0 0 263 64" fill="none" xmlns="http://www.w3.org/2000/svg">
<g clip-path="url(#clip0_1391_49424)">
<path fill-rule="evenodd" clip-rule="evenodd" d="M22.9491 14.998H40.9207C50.5699 14.998 54.2022 19.8829 53.6409 27.0595C52.7131 38.9076 45.5505 45.4625 36.0497 45.4625H31.253C29.9494 45.4625 29.0726 46.3254 28.7201 48.6634L26.6836 62.2558C26.549 63.1372 26.0851 63.6475 25.3893 63.7171H14.0979C13.0356 63.7171 12.6598 62.9052 12.9381 61.147L19.8224 17.5727C20.0915 15.8284 21.0471 14.998 22.9491 14.998Z" fill="#3A3A5F"/>
<path fill-rule="evenodd" clip-rule="evenodd" d="M100.973 14.1904C107.037 14.1904 112.631 17.4795 111.866 25.6766C110.938 35.4186 105.719 40.8091 97.4848 40.8323H90.2896C89.2551 40.8323 88.7541 41.6766 88.4851 43.407L87.0934 52.2536C86.8846 53.5896 86.198 54.2484 85.1867 54.2484H78.4926C77.4256 54.2484 77.0545 53.5664 77.2911 52.0402L82.8162 16.5842C83.0899 14.8399 83.744 14.1904 84.9362 14.1904H100.959H100.973ZM90.0716 33.1733H95.5225C98.9321 33.0434 101.196 30.6821 101.423 26.4235C101.562 23.7932 99.7857 21.9098 96.9605 21.9237L91.8298 21.9469L90.0716 33.1733ZM130.065 51.5345C130.677 50.9779 131.299 50.6902 131.21 51.3768L130.992 53.019C130.881 53.8772 131.22 54.3319 132.018 54.3319H137.965C138.967 54.3319 139.454 53.9283 139.7 52.3789L143.365 29.3786C143.55 28.2235 143.267 27.6575 142.39 27.6575H135.849C135.26 27.6575 134.973 27.9869 134.82 28.8868L134.578 30.3017C134.453 31.0393 134.114 31.1692 133.799 30.427C132.69 27.8013 129.86 26.623 125.913 26.7158C116.741 26.906 110.558 33.8692 109.894 42.7946C109.384 49.6975 114.329 55.1205 120.852 55.1205C125.583 55.1205 127.699 53.7288 130.083 51.5485L130.065 51.5345ZM125.082 47.995C121.134 47.995 118.384 44.8451 118.954 40.9854C119.525 37.1258 123.217 33.9759 127.165 33.9759C131.113 33.9759 133.864 37.1258 133.293 40.9854C132.723 44.8451 129.035 47.995 125.082 47.995ZM155.004 27.5833H148.973C147.73 27.5833 147.224 28.5111 147.619 29.6523L155.106 51.5763L147.762 62.0095C147.145 62.8816 147.623 63.6749 148.491 63.6749H155.268C155.663 63.7205 156.063 63.6517 156.42 63.4765C156.777 63.3013 157.076 63.0272 157.282 62.6868L180.31 29.6569C181.02 28.641 180.686 27.574 179.521 27.574H173.105C172.006 27.574 171.565 28.0101 170.934 28.924L161.332 42.841L157.041 28.8915C156.79 28.0472 156.164 27.5833 155.009 27.5833H155.004Z" fill="#3A3A5F"/>
<path fill-rule="evenodd" clip-rule="evenodd" d="M204.266 14.1909C210.329 14.1909 215.923 17.48 215.158 25.6771C214.23 35.4191 209.011 40.8096 200.777 40.8328H193.587C192.552 40.8328 192.051 41.6771 191.782 43.4075L190.39 52.2541C190.181 53.5901 189.495 54.2489 188.484 54.2489H181.789C180.722 54.2489 180.351 53.5669 180.588 52.0407L186.122 16.5754C186.396 14.8311 187.05 14.1816 188.242 14.1816H204.266V14.1909ZM193.364 33.1738H198.815C202.224 33.0439 204.488 30.6826 204.716 26.424C204.855 23.7937 203.078 21.9103 200.253 21.9242L195.122 21.9474L193.364 33.1738ZM233.357 51.535C233.969 50.9784 234.591 50.6907 234.503 51.3773L234.285 53.0195C234.173 53.8777 234.512 54.3324 235.31 54.3324H241.257C242.259 54.3324 242.746 53.9288 242.992 52.3793L246.657 29.3791C246.842 28.224 246.559 27.658 245.683 27.658H239.151C238.562 27.658 238.274 27.9874 238.121 28.8873L237.88 30.3022C237.755 31.0398 237.416 31.1697 237.101 30.4275C235.992 27.8018 233.162 26.6235 229.214 26.7163C220.043 26.9065 213.859 33.8697 213.196 42.7951C212.685 49.698 217.631 55.121 224.153 55.121C228.885 55.121 231 53.7293 233.385 51.549L233.357 51.535ZM228.379 47.9955C224.431 47.9955 221.68 44.8456 222.251 40.9859C222.822 37.1263 226.514 33.9763 230.462 33.9763C234.41 33.9763 237.161 37.1263 236.59 40.9859C236.02 44.8456 232.327 47.9955 228.379 47.9955ZM255.81 54.3695H248.944C248.825 54.3748 248.705 54.3537 248.595 54.3077C248.485 54.2617 248.386 54.1918 248.306 54.1032C248.226 54.0146 248.166 53.9093 248.131 53.795C248.096 53.6806 248.087 53.56 248.104 53.4417L254.135 15.2347C254.193 14.974 254.337 14.7404 254.544 14.5719C254.751 14.4034 255.009 14.31 255.276 14.3069H262.142C262.261 14.3016 262.38 14.3227 262.491 14.3687C262.601 14.4147 262.7 14.4845 262.78 14.5732C262.86 14.6618 262.92 14.7671 262.955 14.8814C262.99 14.9958 262.999 15.1164 262.982 15.2347L256.951 53.4417C256.895 53.7041 256.752 53.9399 256.544 54.1101C256.337 54.2804 256.078 54.3751 255.81 54.3788V54.3695Z" fill="#3A3A5F"/>
<path fill-rule="evenodd" clip-rule="evenodd" d="M11.7101 0H29.7002C34.766 0 40.7782 0.162366 44.7956 3.71122C47.4815 6.08176 48.8918 9.85328 48.5671 13.9171C47.463 27.6532 39.2473 35.3493 28.225 35.3493H19.3552C17.8428 35.3493 16.8455 36.3514 16.4187 39.0605L13.9414 54.8332C13.7791 55.8538 13.3384 56.4569 12.5497 56.5311H1.44855C0.219208 56.5311 -0.216865 55.6033 0.103228 53.5529L8.08234 2.9968C8.40244 0.964912 9.52044 0 11.7101 0Z" fill="#3A3A5F"/>
<path fill-rule="evenodd" clip-rule="evenodd" d="M16.6777 37.46L19.8184 17.5725C20.0921 15.8282 21.0477 14.9932 22.9497 14.9932H40.9213C43.8949 14.9932 46.3025 15.4571 48.186 16.3153C46.3814 28.5437 38.4719 35.3353 28.1176 35.3353H19.2617C18.0741 35.3399 17.2019 35.9337 16.6777 37.46Z" fill="#3A3A5F"/>
<path d="M12 60.5L17.5 36C17.6667 35.1667 18.7 33.5 21.5 33.5C24.3 33.5 26.6667 33.5 27.5 33.5C33 33.5 42.5 32.7 46.5 23.5C47.8884 20.3066 50.5 13.6 50.5 12" stroke="#D0E1FF" stroke-width="2"/>
</g>
<defs>
<clipPath id="clip0_1391_49424">
<rect width="263" height="63.717" fill="white"/>
</clipPath>
</defs>
</svg>
