<svg width="107" height="40" viewBox="0 0 107 40" fill="none" xmlns="http://www.w3.org/2000/svg">
<path d="M51.287 12.1283C51.287 10.5485 51.1605 9.27819 49.2479 9.27819C47.8322 9.27819 47.0166 10.5064 47.0166 11.6455V16.1597C47.0166 17.6082 48.0244 16.9285 48.0244 17.7582C48.0244 18.1285 47.79 18.3489 47.2322 18.3489H44.0164C43.4586 18.3489 43.2242 18.1285 43.2242 17.7582C43.2242 16.9238 44.2321 17.6035 44.2321 16.1597V10.8111C44.2321 9.10006 43.0977 9.93446 43.0977 8.92661C43.0977 8.0922 45.4556 7.65625 45.8868 7.65625C46.529 7.65625 46.6181 8.0922 46.6603 9.40944C47.6025 8.29377 48.7604 7.65625 50.1995 7.65625C52.8574 7.65625 54.0809 9.01568 54.0809 11.9502V16.1597C54.0809 17.6082 55.0887 16.9285 55.0887 17.7582C55.0887 18.1285 54.8544 18.3489 54.2965 18.3489H51.0808C50.5229 18.3489 50.2886 18.1285 50.2886 17.7582C50.2886 16.9238 51.2964 17.6035 51.2964 16.1597V12.1283H51.287Z" fill="#3A3A5F"/>
<path d="M63.9823 18.3533C63.0823 18.3533 62.9979 17.8705 63.0401 17.1674H62.9557C62.3557 18.0861 61.0057 18.569 59.5666 18.569C57.1243 18.569 55.793 17.0361 55.793 15.3251C55.793 12.3437 59.74 11.2046 62.8245 11.2046C62.8245 9.93427 62.0932 8.96861 60.6822 8.96861C58.99 8.96861 58.84 10.239 57.4665 10.239C56.9508 10.239 56.5242 9.95302 56.5242 9.36237C56.5242 8.31233 58.6243 7.65137 60.5322 7.65137C63.3401 7.65137 65.6137 8.70141 65.6137 11.5093V16.2205C65.6137 17.3174 66.6871 17.0314 66.6871 17.6689C66.6871 18.1518 66.5137 18.3487 65.6559 18.3487H63.9823V18.3533ZM62.8245 12.3906C60.3353 12.3906 58.7509 13.9235 58.7509 15.3064C58.7509 16.3142 59.5666 17.3455 60.6822 17.3455C62.0745 17.3455 62.7823 15.9861 62.8245 14.936V12.3953V12.3906Z" fill="#3A3A5F"/>
<path d="M73.3776 7.87632C73.8698 7.87632 74.1932 8.04976 74.1932 8.57947C74.1932 9.10918 73.8698 9.28262 73.3776 9.28262H71.6197V15.6391C71.6197 16.6704 71.9619 16.9564 73.0541 16.9564C74.0385 16.9564 74.2964 17.1111 74.2964 17.5939C74.2964 18.1189 74.062 18.3627 73.5463 18.3627H70.4994C69.1259 18.3627 68.8258 18.1236 68.8258 16.9376V9.27794H67.9446C67.3211 9.27794 67.1289 9.12324 67.1289 8.57478C67.1289 8.02633 67.5367 7.93726 68.329 7.87163C70.7712 7.63256 70.0681 4.06055 71.0525 4.06055C71.5025 4.06055 71.6103 4.28087 71.6103 4.93714V7.87163H73.3682L73.3776 7.87632Z" fill="#3A3A5F"/>
<path d="M84.0574 18.3533C82.9839 18.3533 82.8995 17.983 82.773 16.9705C81.8495 17.9549 80.5651 18.569 79.215 18.569C76.7259 18.569 75.6993 16.947 75.6993 14.9548V10.464C75.6993 8.90767 74.7148 9.58738 74.7148 8.75297C74.7148 8.04982 77.2884 7.65605 77.6118 7.65605C78.1275 7.65605 78.4931 7.91856 78.4931 9.27799V14.4719C78.4931 16.4642 78.9666 16.947 80.2088 16.947C81.451 16.947 82.6089 16.1595 82.6089 14.9313V10.4593C82.6089 8.90298 81.6245 9.58269 81.6245 8.74828C81.6245 8.04513 84.198 7.65137 84.5215 7.65137C85.0371 7.65137 85.4028 7.91388 85.4028 9.27331V16.2205C85.4028 17.4252 86.495 17.1627 86.495 17.7533C86.495 18.0815 86.345 18.344 85.7028 18.344H84.0715L84.0574 18.3533Z" fill="#3A3A5F"/>
<path d="M88.3016 18.3537C87.7438 18.3537 87.5094 18.1334 87.5094 17.7631C87.5094 16.9287 88.5172 17.6084 88.5172 16.1646V11.7394C88.5172 9.21744 87.0781 10.1597 87.0781 9.21744C87.0781 8.57992 87.7203 8.44866 88.3204 8.14396C88.7704 7.92364 89.5017 7.66113 89.8017 7.66113C90.7439 7.66113 90.8939 9.52214 90.9595 10.2253H91.0017C91.4939 9.02056 92.5674 7.66113 93.8518 7.66113C94.7331 7.66113 95.2909 8.34085 95.2909 9.19401C95.2909 9.78465 95.0331 10.4222 94.2831 10.4222C93.9596 10.4222 93.4252 10.0706 92.994 10.0706C92.1127 10.0706 91.3017 11.5847 91.3017 13.2254V16.1599C91.3017 17.6084 92.3096 16.9287 92.3096 17.7584C92.3096 18.1287 92.0752 18.349 91.5174 18.349H88.3016V18.3537Z" fill="#3A3A5F"/>
<path d="M101.793 7.65625C103.593 7.65625 105.951 8.50941 105.932 10.7032C105.909 13.6612 101.043 14.1862 98.8118 14.3174C99.0697 15.9628 100.335 16.9894 101.817 16.9894C103.082 16.9238 103.917 16.5066 104.817 15.6769C105.075 15.4378 105.225 15.2175 105.609 15.2175C105.951 15.2175 106.101 15.4378 106.101 15.7238C106.101 16.8207 103.743 18.5739 101.146 18.5739C98.1884 18.5739 95.6992 16.516 95.6758 13.3799C95.6992 9.98134 97.7759 7.66094 101.789 7.66094L101.793 7.65625ZM98.6431 13.1362C99.7588 13.0283 103.148 12.5877 103.148 10.3985C103.148 9.41413 102.567 8.84223 101.606 8.84223C99.5478 8.84223 98.6056 10.947 98.6478 13.1362H98.6431Z" fill="#3A3A5F"/>
<path d="M46.8916 27.3298C47.8572 26.561 49.0151 26.1485 50.2151 26.1485C52.873 26.1485 54.0965 27.5079 54.0965 30.4424V34.6519C54.0965 36.1004 55.1044 35.4207 55.1044 36.2504C55.1044 36.6208 54.87 36.8411 54.3122 36.8411H51.0964C50.5386 36.8411 50.3042 36.6208 50.3042 36.2504C50.3042 35.416 51.312 36.0957 51.312 34.6519V30.6205C51.312 29.0408 51.1855 27.7704 49.1229 27.7704C47.7072 27.7704 46.8916 28.9986 46.8916 30.1377V34.6519C46.8916 36.1004 47.8994 35.4207 47.8994 36.2504C47.8994 36.6208 47.665 36.8411 47.1072 36.8411H43.8914C43.3336 36.8411 43.0992 36.6208 43.0992 36.2504C43.0992 35.416 44.1071 36.0957 44.1071 34.6519V22.9937C44.1071 21.9202 42.9492 22.1593 42.9492 21.503C42.9492 21.1748 43.2727 21.1092 43.5071 20.978C43.9993 20.7155 45.5228 20.1436 46.1228 20.1436C46.7884 20.1436 46.8962 20.6029 46.8962 21.592V27.3345L46.8916 27.3298Z" fill="#3A3A5F"/>
<path d="M61.6018 37.0614C58.386 37.0614 55.7891 34.8488 55.7891 31.6049C55.7891 28.361 58.386 26.1484 61.6018 26.1484C64.8175 26.1484 67.4145 28.361 67.4145 31.6049C67.4145 34.8488 64.8175 37.0614 61.6018 37.0614ZM61.6018 35.7488C63.2097 35.7488 64.4519 34.3472 64.4519 31.6049C64.4519 28.8626 63.2097 27.461 61.6018 27.461C59.9939 27.461 58.7517 28.8626 58.7517 31.6049C58.7517 34.3472 59.9939 35.7488 61.6018 35.7488Z" fill="#3A3A5F"/>
<path d="M77.6238 36.8416C76.5503 36.8416 76.4659 36.4713 76.3394 35.4588C75.4159 36.4432 74.1315 37.0573 72.7814 37.0573C70.2923 37.0573 69.2657 35.4353 69.2657 33.4431V28.9523C69.2657 27.3959 68.2812 28.0757 68.2812 27.2413C68.2812 26.5381 70.8548 26.1443 71.1736 26.1443C71.6892 26.1443 72.0548 26.4068 72.0548 27.7663V32.9602C72.0548 34.9525 72.5283 35.4353 73.7705 35.4353C75.0128 35.4353 76.1706 34.6478 76.1706 33.4196V28.9476C76.1706 27.3913 75.1862 28.071 75.1862 27.2366C75.1862 26.5334 77.7597 26.1396 78.0832 26.1396C78.5988 26.1396 78.9645 26.4022 78.9645 27.7616V34.7087C78.9645 35.9135 80.0567 35.651 80.0567 36.2416C80.0567 36.5697 79.9067 36.8323 79.2645 36.8323H77.6332L77.6238 36.8416Z" fill="#3A3A5F"/>
<path d="M85.4541 26.1484C87.7511 26.1484 89.012 27.0672 89.012 27.7469C89.012 29.1298 88.9042 29.2376 88.5386 29.2376C87.5964 29.2376 87.6151 27.461 85.4494 27.461C84.0572 27.461 83.7337 28.3376 83.7337 28.9095C83.7337 30.9674 89.5042 29.6126 89.5042 33.2925C89.5042 35.6176 87.6151 37.0614 84.8072 37.0614C82.3837 37.0614 80.668 35.4394 80.668 34.7175C80.668 34.2113 80.968 33.6019 81.5258 33.6019C82.5993 33.6019 82.5758 35.7488 84.7416 35.7488C85.8572 35.7488 86.7151 35.0925 86.7151 34.1925C86.7151 31.8252 81.0336 33.555 81.0336 29.6548C81.0336 27.1985 83.3728 26.1484 85.4494 26.1484H85.4541Z" fill="#3A3A5F"/>
<path d="M96.4299 26.1484C98.23 26.1484 100.588 27.0016 100.569 29.1954C100.546 32.1534 95.6799 32.6784 93.4486 32.8096C93.7064 34.455 94.9721 35.4816 96.4534 35.4816C97.719 35.416 98.5534 34.9988 99.4535 34.1691C99.7113 33.93 99.8613 33.7097 100.246 33.7097C100.588 33.7097 100.738 33.93 100.738 34.2159C100.738 35.3129 98.38 37.066 95.783 37.066C92.8251 37.066 90.3359 35.0082 90.3125 31.8721C90.3359 28.4735 92.4126 26.1531 96.4252 26.1531L96.4299 26.1484ZM93.2798 31.6283C94.3955 31.5205 97.7847 31.0799 97.7847 28.8907C97.7847 27.9063 97.2034 27.3344 96.2424 27.3344C94.1845 27.3344 93.2423 29.4392 93.2845 31.6283H93.2798Z" fill="#3A3A5F"/>
<path d="M22.5443 13.0278C21.3489 14.4434 20.2192 15.9107 19.0332 17.3357C18.4519 18.0389 17.8613 18.728 17.2425 19.3983C16.694 19.989 15.794 20.5374 15.6018 21.4C15.358 22.4688 15.9956 23.8844 16.1503 24.9485C16.3518 26.3314 16.544 27.7096 16.7268 29.0971C16.9097 30.4847 17.069 31.7738 17.219 33.1145C17.2987 33.8083 17.3737 34.502 17.4441 35.1958C17.4909 35.6458 17.5941 36.9818 18.3019 36.2927C21.2551 33.4332 24.1193 30.4706 27.2366 27.7799C28.6711 26.533 30.1149 25.3001 31.5915 24.1001C32.3462 23.486 33.1103 22.8766 33.8791 22.2812C34.765 21.5968 35.7495 21.339 35.712 20.0452C35.6979 19.5296 35.6932 19.0233 35.6932 18.5077C35.7588 17.5514 35.4588 16.5529 34.676 15.7466C34.676 15.7466 29.2992 10.2011 29.2664 10.1636C28.6711 9.54481 28.0898 8.52758 27.3351 8.10569C26.3975 7.58067 25.4178 9.1698 25.01 9.77451C24.2271 10.9324 23.4584 11.9543 22.5489 13.0278H22.5443Z" fill="#3A3A5F"/>
<path d="M15.545 18.3441C16.2716 18.4753 17.8279 16.7034 18.1748 16.2393C19.2295 14.833 20.3311 13.4642 21.4515 12.1141C22.2343 11.1672 23.1109 10.3047 23.9594 9.41404C24.5172 8.82808 25.2438 8.34993 25.7079 7.65616C26.4204 6.58268 25.3938 5.99672 24.7282 5.31232C24.1563 4.72636 23.5797 4.14977 22.9984 3.57787C22.1593 2.75284 21.2968 1.95125 20.4764 1.10746C19.0467 -0.369155 16.6794 -0.369155 15.245 1.10746C14.5043 1.87156 13.7637 2.63096 13.0277 3.39505C12.7605 3.67163 12.4043 3.95758 12.3808 4.38884C12.3527 4.89511 12.6433 5.47638 12.7511 5.9639C13.2246 8.06867 13.6512 10.1828 14.0496 12.3063C14.3075 13.6751 14.5559 15.0486 14.7903 16.4221C14.9075 17.1065 14.7856 16.3471 14.9028 17.0362C14.9497 17.3081 15.1887 18.2831 15.5544 18.3488L15.545 18.3441Z" fill="#3A3A5F"/>
<path d="M15.5675 21.0722C15.5581 21.03 15.5534 20.9831 15.5675 21.0722Z" fill="#3A3A5F"/>
<path d="M28.196 28.8727C27.8304 29.2055 27.4648 29.543 27.0991 29.8759C24.2631 32.4588 21.4552 35.3089 18.2722 37.4418C17.6206 37.8777 17.7847 38.5012 17.9675 39.1434C18.1128 39.659 18.08 39.6684 18.591 39.7762C19.8801 40.0434 21.5255 39.7762 22.8568 39.7762H27.1507C28.8805 39.7762 30.6055 39.7762 32.3353 39.7762C34.1869 39.7762 35.701 38.2621 35.701 36.4105C35.701 34.0385 35.6495 31.6665 35.626 29.2946C35.612 28.0852 35.6073 26.8757 35.626 25.6616C35.6354 24.8788 35.8042 24.1053 35.776 23.3225C35.7292 21.9396 34.1728 23.2662 33.69 23.7256C32.9775 24.4053 32.2603 25.085 31.5431 25.7601C30.4321 26.8054 29.3164 27.8414 28.1914 28.8774L28.196 28.8727Z" fill="#3A3A5F"/>
<path d="M14.0021 22.39C13.9834 22.3244 13.9646 22.2587 13.9505 22.1884C13.8099 21.4384 12.3849 21.4525 11.8083 21.1946C11.0207 20.8431 10.2426 20.4587 9.47849 20.0602C8.03469 19.3102 6.61432 18.5086 5.19864 17.7117C4.4158 17.271 3.64702 16.8163 2.87824 16.3523C2.47978 16.1132 2.08602 15.8647 1.68757 15.6303C1.04067 15.2506 0.58596 16.2304 0.346889 16.732C0.0843783 17.2851 -0.0234384 17.8992 0.0187507 18.5086L0 36.4062C0 38.2578 1.51412 39.7719 3.36576 39.7719C5.67678 39.7719 7.9925 39.7719 10.3035 39.7719C11.3958 39.7719 12.4974 39.7391 13.5896 39.7625C14.6537 39.786 15.8444 40.2313 16.8757 39.8235C17.621 39.5282 16.2475 35.8108 16.1163 35.0655C15.8678 33.6217 15.6522 32.1685 15.4037 30.7247C15.1459 29.2246 14.8975 27.7199 14.6537 26.2198C14.5271 25.4417 14.4052 24.6588 14.274 23.876C14.2224 23.576 14.2084 23.2713 14.1615 22.9666C14.1287 22.765 14.049 22.5775 13.988 22.3806L14.0021 22.39Z" fill="#3A3A5F"/>
<path d="M6.14259 15.9389C7.38951 16.6233 8.61299 17.3499 9.80835 18.114C11.0459 18.9015 12.1147 20.05 13.4929 20.6031C13.6944 19.3468 13.146 17.978 12.9725 16.7452C12.7803 15.4139 12.6022 14.0873 12.4288 12.7513C12.26 11.4293 12.1006 10.1074 11.9553 8.78549C11.8241 7.59482 11.8287 6.38071 11.5897 5.2041C11.0365 5.38692 10.4599 5.73381 10.0568 6.15101C9.45209 6.77448 8.85207 7.39325 8.24736 8.01671C7.48795 8.79955 6.72855 9.5824 5.96914 10.3652C5.416 10.9325 4.86285 11.4997 4.3097 12.0669C3.94406 12.4419 3.47061 12.77 3.10497 13.1685C2.95496 13.3325 2.62682 13.6607 2.61745 13.8951C2.60807 14.2138 2.85183 14.2279 3.11903 14.3732C3.45186 14.556 3.78937 14.7248 4.12688 14.8982C4.80191 15.2404 5.48162 15.5733 6.14259 15.9389Z" fill="#3A3A5F"/>
</svg>
